<svg version="1.1" id="Layer_1" xmlns="http://www.w3.org/2000/svg" xmlns:xlink="http://www.w3.org/1999/xlink" x="0px" y="0px"
	 width="100%" viewBox="0 0 400 400" enable-background="new 0 0 400 400" xml:space="preserve">
<path fill="#051D35" opacity="1.000000" stroke="none" 
	d="
M1.000000,141.000000 
	C1.000000,94.014526 1.000000,47.529057 1.000000,1.021793 
	C134.277130,1.021793 267.554291,1.021793 400.915710,1.021793 
	C400.915710,134.235443 400.915710,267.470947 400.915710,400.853210 
	C267.666779,400.853210 134.333420,400.853210 1.000000,400.853210 
	C1.000000,314.445770 1.000000,227.972885 1.000000,141.000000 
M321.103455,290.314911 
	C327.797821,281.398132 334.856628,272.725739 341.057709,263.478149 
	C345.157227,257.364624 348.571899,250.643768 351.306458,243.800522 
	C354.721710,235.253815 358.435303,226.478088 359.642059,217.482224 
	C361.277466,205.290985 361.263855,192.775253 360.821991,180.439392 
	C360.426758,169.404495 358.289673,158.495071 353.696472,148.217697 
	C352.098633,144.642517 351.194427,140.757324 350.498077,136.541306 
	C349.273285,131.347931 352.417389,128.834595 356.396271,126.732727 
	C357.395813,126.204727 358.158234,125.230110 359.034546,124.466377 
	C363.369385,120.688560 367.423401,116.503494 372.125427,113.257187 
	C376.379333,110.320290 380.879456,102.275948 378.554291,97.719482 
	C374.609741,89.989578 371.607056,81.376183 363.230682,76.754402 
	C358.752594,74.283562 353.909271,72.120819 350.155151,68.780205 
	C345.308777,64.467628 336.927948,65.099846 334.616730,57.463638 
	C334.559570,57.274780 334.026184,57.228374 333.713806,57.118675 
	C320.985443,52.648376 308.298035,48.055851 295.507294,43.771687 
	C290.711945,42.165527 285.708496,41.113945 280.736237,40.132107 
	C278.395996,39.669998 275.903961,39.897846 273.482880,39.939655 
	C267.428741,40.044216 261.347443,39.906364 255.329514,40.448147 
	C247.686874,41.136189 240.091812,42.370220 232.491379,43.473248 
	C231.931625,43.554482 231.494171,44.478336 230.124268,45.013836 
	C224.382294,44.345737 218.628586,43.048393 212.901031,43.155006 
	C204.004883,43.320599 195.048706,43.941166 186.263687,45.306507 
	C178.331985,46.539219 170.439774,48.555725 162.807037,51.067848 
	C148.633209,55.732811 134.626846,57.275494 120.510361,51.238567 
	C115.948814,49.287819 111.616982,46.553764 106.882797,45.304680 
	C97.363029,42.792946 87.638908,41.055714 77.697266,38.572720 
	C77.129166,38.707081 76.561066,38.841442 75.172867,38.952606 
	C71.780212,38.964119 68.387558,38.975636 64.131226,38.991081 
	C61.744411,39.644657 59.357594,40.298233 56.177521,40.965328 
	C55.119843,40.984501 54.062168,41.003674 52.234165,41.012665 
	C50.478718,42.002384 48.723274,42.992107 46.485229,43.991829 
	C46.485229,43.991829 46.002922,44.011284 45.258644,44.093296 
	C43.841515,45.650867 41.584267,47.067829 41.292076,48.813675 
	C41.084972,50.051140 43.245556,52.288101 44.847191,53.118061 
	C50.978706,56.295395 57.316109,59.074539 63.567383,62.021984 
	C67.052818,63.665356 70.519966,65.347488 74.550629,67.435059 
	C76.018097,67.967087 77.485558,68.499123 79.100037,69.699966 
	C83.067818,73.131058 87.035606,76.562141 91.230804,80.422638 
	C91.430580,80.690224 91.686882,80.882477 92.065659,81.648788 
	C92.711853,82.766235 93.358040,83.883690 94.111786,85.819321 
	C95.441536,90.597801 95.876022,95.359779 93.075333,99.778267 
	C87.258087,108.955864 80.999596,117.873039 75.574280,127.273438 
	C71.573708,134.205200 67.774185,141.472656 65.396973,149.063995 
	C62.656765,157.814499 61.680210,167.107193 59.752434,176.124832 
	C57.502560,186.649139 57.556843,197.195816 59.177429,207.754715 
	C62.475529,229.243347 69.223473,249.598282 81.080536,267.873108 
	C88.300316,279.000671 95.587265,290.481049 104.890152,299.749115 
	C114.170868,308.995056 126.172737,315.460358 136.667084,323.552612 
	C145.444168,330.320709 155.932449,333.284668 166.037216,336.426025 
	C175.640656,339.411560 186.130417,339.501678 196.194305,341.093353 
	C197.916473,341.365753 200.489365,342.435883 200.924210,343.725769 
	C205.865417,358.382721 216.889801,367.853851 228.922363,376.112122 
	C240.592621,384.121674 254.093170,386.709259 268.116974,385.856720 
	C270.969788,385.683319 273.718506,383.796967 276.515198,382.700287 
	C275.461517,380.542480 274.407593,378.384827 273.354614,376.226654 
	C273.282166,376.078186 273.226349,375.920929 273.146301,375.776917 
	C266.621155,364.037628 260.792175,352.024689 259.728119,338.363708 
	C259.610687,336.856354 260.614655,334.301239 261.775238,333.800507 
	C276.431396,327.477112 289.989227,319.455811 302.085541,308.990692 
	C303.869080,307.447662 305.997467,306.303253 308.776825,304.992676 
	C315.589111,304.599731 320.987244,298.405823 321.103455,290.314911 
z"/>
<path fill="#070B12" opacity="1.000000" stroke="none" 
	d="
M91.999695,80.999390 
	C91.686882,80.882477 91.430580,80.690224 91.107491,79.818100 
	C88.975998,70.843102 88.487808,70.429924 78.953026,69.031151 
	C77.485558,68.499123 76.018097,67.967087 74.231552,66.858429 
	C72.236351,62.631004 71.812561,58.074902 66.619705,57.109562 
	C62.000526,56.250874 57.354309,55.371479 52.868675,54.011089 
	C49.010357,52.840954 45.409210,47.092670 46.002922,44.011284 
	C46.002922,44.011284 46.485229,43.991829 47.100075,43.948627 
	C49.478111,42.944569 51.241302,41.983707 53.004490,41.022850 
	C54.062168,41.003674 55.119843,40.984501 56.837868,41.234802 
	C60.508537,42.188408 63.493286,42.796352 64.994904,38.987144 
	C68.387558,38.975636 71.780212,38.964119 75.732651,39.183170 
	C76.861336,39.275452 77.430222,39.137169 77.999115,38.998890 
	C87.638908,41.055714 97.363029,42.792946 106.882797,45.304680 
	C111.616982,46.553764 115.948814,49.287819 120.510361,51.238567 
	C134.626846,57.275494 148.633209,55.732811 162.807037,51.067848 
	C170.439774,48.555725 178.331985,46.539219 186.263687,45.306507 
	C195.048706,43.941166 204.004883,43.320599 212.901031,43.155006 
	C218.628586,43.048393 224.382294,44.345737 230.930878,45.060200 
	C233.491669,46.069344 235.245819,47.032124 236.642273,48.037857 
	C235.484421,48.282200 234.692596,48.612953 233.882874,48.664879 
	C226.150604,49.160713 218.104202,48.446453 210.770966,50.408268 
	C203.846664,52.260677 197.634399,56.845058 191.182541,60.362743 
	C188.021759,62.086056 185.080124,64.207962 181.943588,65.980049 
	C178.955017,67.668541 175.329941,68.573097 172.875534,70.802879 
	C163.973648,78.890060 155.360794,87.303276 146.818939,95.775002 
	C143.389603,99.176163 144.578857,103.732307 149.090988,105.866920 
	C151.491608,107.002609 154.315674,107.616837 156.239441,109.284508 
	C158.267273,111.042381 159.598557,113.690956 160.963501,116.103508 
	C162.542664,118.894684 163.298294,122.317719 165.345612,124.644501 
	C170.010590,129.946274 175.270935,134.721542 180.239960,139.759476 
	C182.915100,142.471710 185.366898,145.260223 189.683624,145.563828 
	C190.862656,145.646774 191.981735,147.719818 192.980820,148.995102 
	C195.304199,151.960876 197.537750,154.997025 199.898468,158.425323 
	C199.091812,173.567062 193.573975,185.590897 179.827988,192.553604 
	C176.129700,194.426910 171.832718,196.192261 168.013474,193.392624 
	C164.255936,190.638260 166.031693,186.428574 166.687256,182.739670 
	C168.921829,170.165710 166.772308,158.790100 157.055481,149.840454 
	C149.582184,142.957214 136.797760,143.840317 130.625183,151.405014 
	C125.640701,157.513657 126.431244,164.150223 129.816391,170.534302 
	C135.260696,180.801758 138.239746,191.372025 136.256866,203.130066 
	C135.236115,209.182800 134.458008,215.372070 134.520432,221.489944 
	C134.619919,231.237183 135.127289,241.022949 136.295319,250.691757 
	C136.666641,253.765610 139.689240,256.519165 141.498642,259.419281 
	C142.206558,259.209259 142.914474,258.999237 143.622375,258.789246 
	C144.026443,255.928497 144.490204,253.074615 144.819534,250.205307 
	C145.235962,246.577194 144.962280,242.740616 146.099548,239.369537 
	C146.869003,237.088776 149.557434,235.455429 151.387543,233.532501 
	C153.172806,235.233749 155.863724,236.622070 156.579300,238.692947 
	C159.068726,245.897293 161.044876,253.295197 162.903091,260.698090 
	C166.830658,276.344910 174.063126,290.043488 186.097290,301.407532 
	C190.537308,304.719147 194.865082,307.716309 200.065720,311.317963 
	C195.174561,298.771210 190.114273,288.042511 186.781876,276.801605 
	C178.284927,248.139648 181.160080,221.764053 204.886581,200.792908 
	C205.684189,202.084976 206.343857,203.051453 206.710815,204.183380 
	C203.057648,208.886108 198.665726,212.927795 199.196381,219.524872 
	C199.178894,219.706726 198.954178,219.994781 198.601410,220.034241 
	C196.268936,224.076782 194.216980,228.046295 192.335831,232.095169 
	C191.154755,234.637283 189.510971,237.254593 189.348297,239.916016 
	C189.058258,244.661209 190.217056,249.496429 189.912735,254.238998 
	C189.013336,268.255402 194.838806,280.556091 199.002213,293.597504 
	C199.911285,292.798096 200.521576,292.261444 201.174622,291.752625 
	C201.217377,291.780426 201.229858,291.881683 201.187103,292.182190 
	C201.691193,292.570892 202.238052,292.659088 202.764847,292.372009 
	C202.799927,290.997253 202.855042,289.997803 203.303238,288.910950 
	C203.729614,284.116119 203.762909,279.408661 203.795593,274.410583 
	C203.929214,273.759521 204.063446,273.399078 204.552216,272.974579 
	C206.564362,269.010498 208.242386,265.118713 209.831360,261.190918 
	C209.931763,260.942780 209.338394,260.413971 209.085480,259.722839 
	C209.429596,258.959015 209.755981,258.488098 210.430939,257.976898 
	C211.833771,256.271423 212.888046,254.606247 213.963287,252.973145 
	C213.984268,253.005249 213.931366,252.945221 214.132492,252.928986 
	C214.435242,252.827255 214.637299,252.704605 214.621704,252.662476 
	C214.538101,252.436554 214.400269,252.230682 214.201965,251.710419 
	C214.463089,250.641846 214.803421,249.880707 215.435806,248.960449 
	C222.511459,240.132599 231.620102,235.416595 242.181915,233.049973 
	C245.052399,232.406784 246.739197,233.230515 248.346039,235.714920 
	C262.658051,257.843323 262.633179,287.162079 245.912659,308.127136 
	C244.351501,310.084625 243.043182,312.243713 241.293747,314.778137 
	C275.596008,307.753784 310.600281,284.605255 328.772308,251.784897 
	C339.083130,233.162537 343.761688,213.130035 343.910553,192.127609 
	C343.979218,182.437241 341.965881,172.732132 340.938782,162.629791 
	C339.936340,157.405579 339.101074,152.524078 337.721100,147.801712 
	C337.299042,146.357452 335.381561,145.350189 333.798828,144.102570 
	C332.309479,144.736145 331.170197,145.409927 330.030670,145.703308 
	C331.561188,143.877625 332.923676,142.176208 334.656067,141.037674 
	C338.934052,138.226181 344.751862,137.234207 346.261169,131.214447 
	C347.674530,133.286728 348.824005,135.150223 349.973450,137.013702 
	C351.194427,140.757324 352.098633,144.642517 353.696472,148.217697 
	C358.289673,158.495071 360.426758,169.404495 360.821991,180.439392 
	C361.263855,192.775253 361.277466,205.290985 359.642059,217.482224 
	C358.435303,226.478088 354.721710,235.253815 351.306458,243.800522 
	C348.571899,250.643768 345.157227,257.364624 341.057709,263.478149 
	C334.856628,272.725739 327.797821,281.398132 320.749390,290.804016 
	C316.252319,295.853546 312.109314,300.414001 307.966309,304.974457 
	C305.997467,306.303253 303.869080,307.447662 302.085541,308.990692 
	C289.989227,319.455811 276.431396,327.477112 261.775238,333.800507 
	C260.614655,334.301239 259.610687,336.856354 259.728119,338.363708 
	C260.792175,352.024689 266.621155,364.037628 273.146301,375.776917 
	C273.226349,375.920929 273.282166,376.078186 273.354614,376.226654 
	C274.407593,378.384827 275.461517,380.542480 276.515198,382.700287 
	C273.718506,383.796967 270.969788,385.683319 268.116974,385.856720 
	C254.093170,386.709259 240.592621,384.121674 228.922363,376.112122 
	C216.889801,367.853851 205.865417,358.382721 200.924210,343.725769 
	C200.489365,342.435883 197.916473,341.365753 196.194305,341.093353 
	C186.130417,339.501678 175.640656,339.411560 166.037216,336.426025 
	C155.932449,333.284668 145.444168,330.320709 136.667084,323.552612 
	C126.172737,315.460358 114.170868,308.995056 104.890152,299.749115 
	C95.587265,290.481049 88.300316,279.000671 81.080536,267.873108 
	C69.223473,249.598282 62.475529,229.243347 59.177429,207.754715 
	C57.556843,197.195816 57.502560,186.649139 59.752434,176.124832 
	C61.680210,167.107193 62.656765,157.814499 65.396973,149.063995 
	C67.774185,141.472656 71.573708,134.205200 75.574280,127.273438 
	C80.999596,117.873039 87.258087,108.955864 93.075333,99.778267 
	C95.876022,95.359779 95.441536,90.597801 94.397186,85.345932 
	C97.148254,81.254089 94.433769,81.223862 91.999695,80.999390 
M248.044708,277.394745 
	C250.078369,265.403259 248.373810,254.128372 241.332535,242.287399 
	C234.880219,246.694443 228.169495,249.969879 223.157181,254.953506 
	C209.621475,268.411804 208.516418,285.061279 213.043045,302.610321 
	C215.571915,312.414429 220.839050,314.102905 228.915054,307.785492 
	C238.677078,300.149231 245.077530,290.329773 248.044708,277.394745 
M223.117905,359.313293 
	C228.965347,368.145325 236.697815,373.796661 247.727142,373.820984 
	C254.777298,373.836548 255.419403,373.203369 256.052063,365.933441 
	C257.835114,345.444611 246.359619,327.995636 225.801010,319.935486 
	C218.771942,317.179688 215.320724,319.374115 215.226151,327.084137 
	C215.089645,338.211914 216.902451,348.948547 223.117905,359.313293 
z"/>
<path fill="#141C32" opacity="1.000000" stroke="none" 
	d="
M236.999985,47.994904 
	C235.245819,47.032124 233.491669,46.069344 231.368683,45.058510 
	C231.494171,44.478336 231.931625,43.554482 232.491379,43.473248 
	C240.091812,42.370220 247.686874,41.136189 255.329514,40.448147 
	C261.347443,39.906364 267.428741,40.044216 273.482880,39.939655 
	C275.903961,39.897846 278.395996,39.669998 280.736237,40.132107 
	C285.708496,41.113945 290.711945,42.165527 295.507294,43.771687 
	C308.298035,48.055851 320.985443,52.648376 333.713806,57.118675 
	C334.026184,57.228374 334.559570,57.274780 334.616730,57.463638 
	C336.927948,65.099846 345.308777,64.467628 350.155151,68.780205 
	C353.909271,72.120819 358.752594,74.283562 363.230682,76.754402 
	C371.607056,81.376183 374.609741,89.989578 378.554291,97.719482 
	C380.879456,102.275948 376.379333,110.320290 372.125427,113.257187 
	C367.423401,116.503494 363.369385,120.688560 359.034546,124.466377 
	C358.158234,125.230110 357.395813,126.204727 356.396271,126.732727 
	C352.417389,128.834595 349.273285,131.347931 350.235779,136.777496 
	C348.824005,135.150223 347.674530,133.286728 346.221680,130.850632 
	C345.273651,128.189972 344.629028,126.101906 344.151550,123.641281 
	C344.031311,117.845032 346.756348,113.506645 349.533661,109.251083 
	C351.981476,105.500412 355.081848,102.706314 360.069702,102.963882 
	C363.215607,103.126328 366.448456,103.290375 369.504395,102.717804 
	C370.811188,102.472969 371.766815,100.354034 372.882019,99.086670 
	C371.623962,98.391487 370.321228,97.026230 369.114929,97.106720 
	C359.145538,97.772003 353.524445,90.461617 346.882416,85.132225 
	C345.775574,84.244125 345.376831,82.231346 345.050415,80.655510 
	C343.763397,74.442757 333.534027,65.480896 326.942505,64.660866 
	C321.190735,60.819382 315.533539,57.256046 309.789551,53.838623 
	C306.864594,52.098385 303.939789,49.786282 300.742493,49.187702 
	C292.675171,47.677376 284.451965,47.003120 276.295746,45.958626 
	C275.495331,45.856129 274.733948,45.478020 273.940948,45.282639 
	C270.805328,44.510056 267.640869,43.041130 264.530029,43.142902 
	C256.949249,43.390907 249.380371,44.270325 241.839874,45.172565 
	C240.800751,45.296898 239.950027,46.995789 238.676788,47.973438 
	C237.894318,47.985744 237.447144,47.990322 236.999985,47.994904 
z"/>
<path fill="#030D1A" opacity="1.000000" stroke="none" 
	d="
M45.630783,44.052292 
	C45.409210,47.092670 49.010357,52.840954 52.868675,54.011089 
	C57.354309,55.371479 62.000526,56.250874 66.619705,57.109562 
	C71.812561,58.074902 72.236351,62.631004 73.953918,66.646973 
	C70.519966,65.347488 67.052818,63.665356 63.567383,62.021984 
	C57.316109,59.074539 50.978706,56.295395 44.847191,53.118061 
	C43.245556,52.288101 41.084972,50.051140 41.292076,48.813675 
	C41.584267,47.067829 43.841515,45.650867 45.630783,44.052292 
z"/>
<path fill="#09182B" opacity="1.000000" stroke="none" 
	d="
M308.371582,304.983582 
	C312.109314,300.414001 316.252319,295.853546 320.690308,291.138794 
	C320.987244,298.405823 315.589111,304.599731 308.371582,304.983582 
z"/>
<path fill="#030D1A" opacity="1.000000" stroke="none" 
	d="
M79.026535,69.365555 
	C88.487808,70.429924 88.975998,70.843102 90.993782,79.603394 
	C87.035606,76.562141 83.067818,73.131058 79.026535,69.365555 
z"/>
<path fill="#030D1A" opacity="1.000000" stroke="none" 
	d="
M64.563065,38.989113 
	C63.493286,42.796352 60.508537,42.188408 57.234497,41.228043 
	C59.357594,40.298233 61.744411,39.644657 64.563065,38.989113 
z"/>
<path fill="#030D1A" opacity="1.000000" stroke="none" 
	d="
M92.032677,81.324089 
	C94.433769,81.223862 97.148254,81.254089 94.343414,84.936844 
	C93.358040,83.883690 92.711853,82.766235 92.032677,81.324089 
z"/>
<path fill="#030D1A" opacity="1.000000" stroke="none" 
	d="
M52.619328,41.017754 
	C51.241302,41.983707 49.478111,42.944569 47.341377,43.943626 
	C48.723274,42.992107 50.478718,42.002384 52.619328,41.017754 
z"/>
<path fill="#030D1A" opacity="1.000000" stroke="none" 
	d="
M77.848190,38.785805 
	C77.430222,39.137169 76.861336,39.275452 76.142700,39.194767 
	C76.561066,38.841442 77.129166,38.707081 77.848190,38.785805 
z"/>
<path fill="#FAFAF9" opacity="1.000000" stroke="none" 
	d="
M185.985046,301.093079 
	C174.063126,290.043488 166.830658,276.344910 162.903091,260.698090 
	C161.044876,253.295197 159.068726,245.897293 156.579300,238.692947 
	C155.863724,236.622070 153.172806,235.233749 151.387543,233.532501 
	C149.557434,235.455429 146.869003,237.088776 146.099548,239.369537 
	C144.962280,242.740616 145.235962,246.577194 144.819534,250.205307 
	C144.490204,253.074615 144.026443,255.928497 143.622375,258.789246 
	C142.914474,258.999237 142.206558,259.209259 141.498642,259.419281 
	C139.689240,256.519165 136.666641,253.765610 136.295319,250.691757 
	C135.127289,241.022949 134.619919,231.237183 134.520432,221.489944 
	C134.458008,215.372070 135.236115,209.182800 136.256866,203.130066 
	C138.239746,191.372025 135.260696,180.801758 129.816391,170.534302 
	C126.431244,164.150223 125.640701,157.513657 130.625183,151.405014 
	C136.797760,143.840317 149.582184,142.957214 157.055481,149.840454 
	C166.772308,158.790100 168.921829,170.165710 166.687256,182.739670 
	C166.031693,186.428574 164.255936,190.638260 168.013474,193.392624 
	C171.832718,196.192261 176.129700,194.426910 179.827988,192.553604 
	C193.573975,185.590897 199.091812,173.567062 199.988251,158.096039 
	C200.048477,156.897964 200.109650,156.449860 200.510864,156.055054 
	C205.851227,160.078079 211.075775,162.125641 217.759979,160.200165 
	C220.917068,159.290695 224.645264,160.407730 228.117279,160.537247 
	C233.264969,160.729294 238.431091,161.185074 243.559723,160.930786 
	C249.450272,160.638702 255.302887,159.638336 261.182648,159.052551 
	C265.361664,158.636215 269.562744,158.118637 273.745392,158.185089 
	C276.169739,158.223602 278.577087,159.328644 280.627380,160.125122 
	C273.038239,161.168304 265.829102,162.202393 258.586731,162.882980 
	C231.329712,165.444519 207.614532,174.820908 190.801346,197.681458 
	C184.024719,206.895493 176.839706,215.853180 173.906250,227.290512 
	C169.430222,244.742340 172.800369,261.536621 178.065720,278.150116 
	C180.509232,285.859955 183.333435,293.449188 185.985046,301.093079 
z"/>
<path fill="#C5C5C8" opacity="1.000000" stroke="none" 
	d="
M186.097290,301.407532 
	C183.333435,293.449188 180.509232,285.859955 178.065720,278.150116 
	C172.800369,261.536621 169.430222,244.742340 173.906250,227.290512 
	C176.839706,215.853180 184.024719,206.895493 190.801346,197.681458 
	C207.614532,174.820908 231.329712,165.444519 258.586731,162.882980 
	C265.829102,162.202393 273.038239,161.168304 281.029419,160.136124 
	C288.881439,157.395432 295.966614,154.815140 303.135284,152.563217 
	C305.023315,152.916916 306.827789,152.948257 308.632416,152.966309 
	C312.340302,153.003403 316.643280,151.666397 317.881714,157.358200 
	C314.806763,160.045181 311.870514,162.427979 308.571747,164.880234 
	C305.455139,166.263275 302.811401,168.346893 299.928314,168.759949 
	C285.844879,170.777679 271.710968,172.469772 257.569641,174.050919 
	C236.691177,176.385330 218.153885,183.258011 204.748627,200.467316 
	C181.160080,221.764053 178.284927,248.139648 186.781876,276.801605 
	C190.114273,288.042511 195.174561,298.771210 200.065720,311.317963 
	C194.865082,307.716309 190.537308,304.719147 186.097290,301.407532 
z"/>
<path fill="#F9FAF9" opacity="1.000000" stroke="none" 
	d="
M247.983215,277.814209 
	C245.077530,290.329773 238.677078,300.149231 228.915054,307.785492 
	C220.839050,314.102905 215.571915,312.414429 213.043045,302.610321 
	C208.516418,285.061279 209.621475,268.411804 223.157181,254.953506 
	C228.169495,249.969879 234.880219,246.694443 241.332535,242.287399 
	C248.373810,254.128372 250.078369,265.403259 247.983215,277.814209 
z"/>
<path fill="#13090F" opacity="1.000000" stroke="none" 
	d="
M200.170837,156.001740 
	C200.109650,156.449860 200.048477,156.897964 199.897491,157.675354 
	C197.537750,154.997025 195.304199,151.960876 192.980820,148.995102 
	C191.981735,147.719818 190.862656,145.646774 189.683624,145.563828 
	C185.366898,145.260223 182.915100,142.471710 180.239960,139.759476 
	C175.270935,134.721542 170.010590,129.946274 165.345612,124.644501 
	C163.298294,122.317719 162.542664,118.894684 160.963501,116.103508 
	C159.598557,113.690956 158.267273,111.042381 156.239441,109.284508 
	C154.315674,107.616837 151.491608,107.002609 149.090988,105.866920 
	C144.578857,103.732307 143.389603,99.176163 146.818939,95.775002 
	C155.360794,87.303276 163.973648,78.890060 172.875534,70.802879 
	C175.329941,68.573097 178.955017,67.668541 181.943588,65.980049 
	C185.080124,64.207962 188.021759,62.086056 191.182541,60.362743 
	C197.634399,56.845058 203.846664,52.260677 210.770966,50.408268 
	C218.104202,48.446453 226.150604,49.160713 233.882874,48.664879 
	C234.692596,48.612953 235.484421,48.282200 236.642273,48.037853 
	C237.447144,47.990322 237.894318,47.985744 238.670914,47.990570 
	C239.000351,47.999973 238.988708,48.032295 238.907715,48.391331 
	C234.010010,50.167515 229.219162,51.681213 224.370743,52.980049 
	C216.325211,55.135357 206.831100,54.393078 201.135269,61.553936 
	C195.926636,68.102318 189.760895,72.482628 182.245819,75.702477 
	C180.647079,76.387451 179.012695,79.769867 179.339478,81.553154 
	C179.909241,84.662338 178.695038,85.632706 176.435440,86.867668 
	C173.867584,88.271103 171.037079,89.702682 169.232513,91.878296 
	C166.312088,95.399246 162.932434,97.067871 158.494308,97.006248 
	C155.780472,96.968567 153.065674,96.999290 150.351318,96.999290 
	C150.150360,97.669319 149.949417,98.339348 149.748459,99.009377 
	C151.345306,99.985466 152.842804,101.535339 154.557251,101.832214 
	C160.146515,102.800049 165.810867,103.346832 171.454330,103.984741 
	C175.614410,104.454987 177.063538,106.259483 175.198776,110.370308 
	C174.693558,111.484077 174.650620,113.487251 175.328384,114.345543 
	C179.184784,119.229141 183.134064,124.074760 187.474380,128.520721 
	C188.901367,129.982391 191.589905,130.212463 193.817535,131.418854 
	C195.684525,138.115967 197.435562,144.399933 199.194733,151.136978 
	C199.525528,153.060623 199.848175,154.531174 200.170837,156.001740 
z"/>
<path fill="#F9FAF9" opacity="1.000000" stroke="none" 
	d="
M222.942703,358.996399 
	C216.902451,348.948547 215.089645,338.211914 215.226151,327.084137 
	C215.320724,319.374115 218.771942,317.179688 225.801010,319.935486 
	C246.359619,327.995636 257.835114,345.444611 256.052063,365.933441 
	C255.419403,373.203369 254.777298,373.836548 247.727142,373.820984 
	C236.697815,373.796661 228.965347,368.145325 222.942703,358.996399 
z"/>
<path fill="#21DED6" opacity="1.000000" stroke="none" 
	d="
M340.896545,163.033707 
	C341.965881,172.732132 343.979218,182.437241 343.910553,192.127609 
	C343.761688,213.130035 339.083130,233.162537 328.772308,251.784897 
	C310.600281,284.605255 275.596008,307.753784 241.293747,314.778137 
	C243.043182,312.243713 244.351501,310.084625 245.912659,308.127136 
	C262.633179,287.162079 262.658051,257.843323 248.346039,235.714920 
	C246.739197,233.230515 245.052399,232.406784 242.181915,233.049973 
	C231.620102,235.416595 222.511459,240.132599 215.188156,248.795563 
	C214.128281,248.201080 213.608109,247.612350 213.219849,246.670334 
	C214.556549,241.892410 215.761353,237.467773 217.108047,233.365097 
	C217.049652,236.638565 216.849365,239.590088 216.649078,242.541595 
	C219.076340,241.188614 220.564255,239.335968 222.027451,237.463989 
	C222.521652,236.831741 222.816498,235.780579 223.435593,235.551819 
	C227.433487,234.074554 231.520462,232.840240 235.531998,231.397705 
	C243.568436,228.507751 247.238358,229.565308 251.760056,236.658783 
	C257.348267,245.425339 260.160431,255.042389 261.106873,265.446014 
	C261.936279,274.563385 260.400696,283.177429 257.860657,291.770416 
	C256.832214,295.249634 255.799667,298.727631 254.682495,302.498077 
	C253.286682,304.078796 251.416382,306.196869 249.546082,308.314941 
	C249.927856,308.702942 250.309616,309.090912 250.691376,309.478912 
	C278.963989,299.679382 305.177979,285.709656 320.824493,259.368713 
	C340.138123,226.854218 345.113892,198.210693 339.683502,173.403351 
	C338.482819,176.115616 337.988281,178.249695 336.748322,179.779755 
	C335.149658,181.752441 332.954285,183.241592 331.161865,184.629211 
	C334.397369,178.434937 339.154449,173.253799 339.261169,165.820465 
	C339.961212,164.762985 340.428864,163.898346 340.896545,163.033707 
z"/>
<path fill="#19A8D1" opacity="1.000000" stroke="none" 
	d="
M213.087921,247.023621 
	C213.608109,247.612350 214.128281,248.201080 214.896103,248.954697 
	C214.803421,249.880707 214.463089,250.641846 214.093872,251.934418 
	C214.064972,252.465866 213.931366,252.945221 213.931366,252.945221 
	C213.931366,252.945221 213.984268,253.005249 213.639084,253.053116 
	C212.223389,254.739716 211.152878,256.378448 210.082367,258.017181 
	C209.755981,258.488098 209.429596,258.959015 208.803009,259.931946 
	C207.067780,264.635529 205.632736,268.837067 204.197693,273.038635 
	C204.063446,273.399078 203.929214,273.759521 203.550171,274.738342 
	C203.173630,279.903900 203.041901,284.451111 202.910172,288.998322 
	C202.855042,289.997803 202.799927,290.997253 202.586899,292.229645 
	C202.029297,292.268921 201.629578,292.075287 201.229858,291.881683 
	C201.229858,291.881683 201.217377,291.780426 201.153488,291.401550 
	C194.793137,278.159546 190.232285,264.650726 191.915375,250.273575 
	C193.112671,240.046143 196.528473,230.078415 198.954178,219.994781 
	C198.954178,219.994781 199.178894,219.706726 199.459961,219.293274 
	C202.610809,214.070816 205.480606,209.261780 208.361160,204.419586 
	C208.371933,204.386414 208.425446,204.341644 208.716827,204.203918 
	C216.474472,195.525070 225.337662,188.952499 236.346893,184.912323 
	C238.147537,184.288818 239.599991,183.666489 241.028748,183.021179 
	C241.005020,182.998199 241.034622,183.056946 241.443344,183.073502 
	C245.566162,182.382462 249.255127,181.468048 252.999893,181.012695 
	C259.652954,180.203735 266.339874,179.673019 273.341827,179.055054 
	C274.105194,179.018997 274.539307,178.953812 275.406189,178.971573 
	C279.903839,178.413864 283.968781,177.773193 288.440155,177.125824 
	C289.905121,176.898438 290.963623,176.677734 292.230896,176.540833 
	C292.783020,176.587479 292.996552,176.401321 293.044983,176.034958 
	C293.009735,176.003738 293.055664,176.085907 293.451599,176.117371 
	C297.821899,175.016815 301.835114,174.004837 305.763550,172.731201 
	C320.110809,168.079712 328.510712,157.469803 334.148895,144.142807 
	C335.381561,145.350189 337.299042,146.357452 337.721100,147.801712 
	C339.101074,152.524078 339.936340,157.405579 340.938782,162.629791 
	C340.428864,163.898346 339.961212,164.762985 339.099792,165.450958 
	C337.900482,161.962418 337.290253,158.582565 336.175293,155.378326 
	C335.821014,154.360107 334.195068,153.463486 333.004425,153.215790 
	C332.531403,153.117401 331.576233,154.882034 330.988342,155.885101 
	C329.759796,157.981232 329.049255,160.564713 327.385437,162.189941 
	C320.488251,168.927109 312.568909,173.957306 302.988831,176.262115 
	C299.757385,177.039566 296.874786,179.178345 293.725800,180.424683 
	C292.154297,181.046661 290.349670,181.243515 288.636841,181.317474 
	C278.463867,181.756790 268.045593,180.878967 258.178406,182.822769 
	C248.095978,184.808975 237.630341,185.577469 228.364120,192.358078 
	C222.283630,196.807495 215.796677,200.354645 211.607925,206.818604 
	C210.245514,208.921021 209.761932,212.641266 208.033371,213.257751 
	C203.218582,214.974915 203.200211,219.228241 201.708755,222.660843 
	C196.817474,233.918137 192.284073,245.294296 194.027374,258.411041 
	C194.408066,260.891632 194.432526,263.127014 195.262985,265.006134 
	C196.083527,266.862885 197.718597,268.359650 199.352448,269.969757 
	C200.351105,269.454315 201.252151,269.124176 201.596664,268.491089 
	C205.476425,261.362152 209.270691,254.186615 213.087921,247.023621 
z"/>
<path fill="#190911" opacity="1.000000" stroke="none" 
	d="
M343.984406,124.013840 
	C344.629028,126.101906 345.273651,128.189972 345.957764,130.641846 
	C344.751862,137.234207 338.934052,138.226181 334.656067,141.037674 
	C332.923676,142.176208 331.561188,143.877625 329.864258,146.002731 
	C328.476105,149.448273 327.254059,152.213989 325.574585,154.984772 
	C323.593018,154.940277 322.068848,154.890732 320.702087,154.526428 
	C324.554321,149.043747 327.768097,143.664825 328.991852,137.028137 
	C324.897522,138.070236 321.431610,138.952408 317.611084,139.820618 
	C315.170685,139.571548 313.084900,139.336441 311.051819,138.754929 
	C314.618103,135.430206 318.065094,132.364258 321.727112,129.581299 
	C322.200073,129.221878 323.770599,130.372498 324.860321,130.742203 
	C326.225677,131.205444 327.619629,131.584564 329.340271,131.957275 
	C330.374054,131.280182 331.068787,130.645828 332.440552,129.393265 
	C330.233826,129.195358 329.118744,129.095352 328.002869,128.585907 
	C329.029449,124.721985 330.157471,121.292717 331.031860,117.799957 
	C331.356812,116.501846 331.675293,114.442719 330.987305,113.782463 
	C328.077148,110.989670 329.185577,108.040970 330.285706,105.136398 
	C331.707336,106.195404 332.844391,107.119713 334.023804,108.393570 
	C337.372223,113.833359 340.678314,118.923607 343.984406,124.013840 
z"/>
<path fill="#0C1017" opacity="1.000000" stroke="none" 
	d="
M292.022156,176.457031 
	C290.963623,176.677734 289.905121,176.898438 288.164490,176.828506 
	C283.000977,175.662445 278.693054,175.710205 274.973450,178.888611 
	C274.539307,178.953812 274.105194,179.018997 273.038452,178.768646 
	C264.439392,178.875534 256.449615,179.063766 248.519882,179.854691 
	C245.943954,180.111618 243.525238,181.944748 241.034607,183.056946 
	C241.034622,183.056946 241.005020,182.998199 240.641068,182.984467 
	C238.849243,183.306839 237.421371,183.642929 235.600525,183.988678 
	C225.853561,185.973206 218.380783,191.126755 212.082413,198.053497 
	C210.487381,199.807617 209.624664,202.227615 208.425446,204.341644 
	C208.425446,204.341644 208.371933,204.386414 208.034805,204.275726 
	C207.466278,204.115982 207.234894,204.066956 207.003510,204.017944 
	C206.343857,203.051453 205.684189,202.084976 204.886581,200.792908 
	C218.153885,183.258011 236.691177,176.385330 257.569641,174.050919 
	C271.710968,172.469772 285.844879,170.777679 299.928314,168.759949 
	C302.811401,168.346893 305.455139,166.263275 308.623169,165.209106 
	C309.701294,166.328613 310.365417,167.188721 310.800842,168.303009 
	C307.409271,169.541931 304.145142,170.289001 301.113159,171.580902 
	C298.298523,172.780243 295.731659,174.561111 293.055664,176.085907 
	C293.055664,176.085907 293.009735,176.003738 292.845642,176.022644 
	C292.404968,176.089981 292.185181,176.228485 292.022156,176.457031 
z"/>
<path fill="#032539" opacity="1.000000" stroke="none" 
	d="
M198.601410,220.034241 
	C196.528473,230.078415 193.112671,240.046143 191.915375,250.273575 
	C190.232285,264.650726 194.793137,278.159546 201.110733,291.373749 
	C200.521576,292.261444 199.911285,292.798096 199.002213,293.597504 
	C194.838806,280.556091 189.013336,268.255402 189.912735,254.238998 
	C190.217056,249.496429 189.058258,244.661209 189.348297,239.916016 
	C189.510971,237.254593 191.154755,234.637283 192.335831,232.095169 
	C194.216980,228.046295 196.268936,224.076782 198.601410,220.034241 
z"/>
<path fill="#03273B" opacity="1.000000" stroke="none" 
	d="
M293.451599,176.117386 
	C295.731659,174.561111 298.298523,172.780243 301.113159,171.580902 
	C304.145142,170.289001 307.409271,169.541931 311.149841,168.252136 
	C316.495728,163.624634 321.263885,159.302170 326.032043,154.979721 
	C327.254059,152.213989 328.476105,149.448273 329.864532,146.383133 
	C331.170197,145.409927 332.309479,144.736145 333.798828,144.102570 
	C328.510712,157.469803 320.110809,168.079712 305.763550,172.731201 
	C301.835114,174.004837 297.821899,175.016815 293.451599,176.117386 
z"/>
<path fill="#032539" opacity="1.000000" stroke="none" 
	d="
M206.710815,204.183380 
	C207.234894,204.066956 207.466278,204.115982 208.024033,204.308899 
	C205.480606,209.261780 202.610809,214.070816 199.477448,219.111435 
	C198.665726,212.927795 203.057648,208.886108 206.710815,204.183380 
z"/>
<path fill="#032539" opacity="1.000000" stroke="none" 
	d="
M203.303238,288.910950 
	C203.041901,284.451111 203.173630,279.903900 203.550781,275.028961 
	C203.762909,279.408661 203.729614,284.116119 203.303238,288.910950 
z"/>
<path fill="#032539" opacity="1.000000" stroke="none" 
	d="
M204.552216,272.974579 
	C205.632736,268.837067 207.067780,264.635529 208.785294,260.224854 
	C209.338394,260.413971 209.931763,260.942780 209.831360,261.190918 
	C208.242386,265.118713 206.564362,269.010498 204.552216,272.974579 
z"/>
<path fill="#032539" opacity="1.000000" stroke="none" 
	d="
M210.430939,257.976898 
	C211.152878,256.378448 212.223389,254.739716 213.618103,253.021027 
	C212.888046,254.606247 211.833771,256.271423 210.430939,257.976898 
z"/>
<path fill="#032539" opacity="1.000000" stroke="none" 
	d="
M201.187103,292.182190 
	C201.629578,292.075287 202.029297,292.268921 202.606949,292.604919 
	C202.238052,292.659088 201.691193,292.570892 201.187103,292.182190 
z"/>
<path fill="#032539" opacity="1.000000" stroke="none" 
	d="
M214.132492,252.928986 
	C213.931366,252.945221 214.064972,252.465866 214.173080,252.241867 
	C214.400269,252.230682 214.538101,252.436554 214.621704,252.662476 
	C214.637299,252.704605 214.435242,252.827255 214.132492,252.928986 
z"/>
<path fill="#1F1A2F" opacity="1.000000" stroke="none" 
	d="
M344.151550,123.641281 
	C340.678314,118.923607 337.372223,113.833359 334.071716,108.033760 
	C335.940582,102.773033 339.638733,101.341537 344.223938,100.906624 
	C346.462067,100.694328 348.611298,99.544182 350.800751,98.818550 
	C350.640839,98.211548 350.480927,97.604553 350.321014,96.997559 
	C348.214417,96.997559 346.107819,96.997559 343.944763,96.664825 
	C342.729279,95.191292 341.619415,93.994736 340.401917,92.920181 
	C336.808350,89.748482 333.527771,86.676765 337.109314,81.269920 
	C337.641724,80.466171 336.213257,77.824883 335.093872,76.565224 
	C331.547943,72.574974 327.718567,68.836655 324.374084,65.000671 
	C325.499969,65.000084 326.250610,64.999733 327.001221,64.999390 
	C333.534027,65.480896 343.763397,74.442757 345.050415,80.655510 
	C345.376831,82.231346 345.775574,84.244125 346.882416,85.132225 
	C353.524445,90.461617 359.145538,97.772003 369.114929,97.106720 
	C370.321228,97.026230 371.623962,98.391487 372.882019,99.086670 
	C371.766815,100.354034 370.811188,102.472969 369.504395,102.717804 
	C366.448456,103.290375 363.215607,103.126328 360.069702,102.963882 
	C355.081848,102.706314 351.981476,105.500412 349.533661,109.251083 
	C346.756348,113.506645 344.031311,117.845032 344.151550,123.641281 
z"/>
<path fill="#1E1B31" opacity="1.000000" stroke="none" 
	d="
M326.942505,64.660866 
	C326.250610,64.999733 325.499969,65.000084 324.007263,64.994316 
	C322.775543,64.918785 322.118561,65.029839 321.820709,64.753647 
	C313.634796,57.163044 302.690765,55.414104 292.907898,51.259079 
	C290.643677,50.297413 287.655212,51.041061 284.569061,51.000244 
	C280.610535,51.010185 277.058258,51.278965 273.563324,50.945854 
	C270.870819,50.689224 268.267395,49.597466 265.593445,49.020145 
	C262.443146,48.339985 259.268494,47.423260 256.087433,47.350563 
	C253.731644,47.296730 251.348770,48.427692 248.542847,49.025337 
	C245.068039,48.690647 242.028381,48.361473 238.988708,48.032295 
	C238.988708,48.032295 239.000351,47.999973 239.006226,47.982841 
	C239.950027,46.995789 240.800751,45.296898 241.839874,45.172565 
	C249.380371,44.270325 256.949249,43.390907 264.530029,43.142902 
	C267.640869,43.041130 270.805328,44.510056 273.940948,45.282639 
	C274.733948,45.478020 275.495331,45.856129 276.295746,45.958626 
	C284.451965,47.003120 292.675171,47.677376 300.742493,49.187702 
	C303.939789,49.786282 306.864594,52.098385 309.789551,53.838623 
	C315.533539,57.256046 321.190735,60.819382 326.942505,64.660866 
z"/>
<path fill="#FDF5F2" opacity="1.000000" stroke="none" 
	d="
M200.510880,156.055054 
	C199.848175,154.531174 199.525528,153.060623 199.619720,151.222977 
	C200.689987,150.970016 201.580933,150.849091 201.961273,151.233429 
	C207.846878,157.180817 213.856873,155.193588 219.992126,151.721786 
	C220.744766,151.295883 221.878815,151.348557 222.804443,151.454987 
	C229.839020,152.263733 236.860580,153.805008 243.895935,153.859436 
	C258.733246,153.974228 273.576599,153.324951 288.417114,152.973709 
	C289.073181,152.958191 289.727295,152.799652 290.379486,152.690781 
	C295.385773,151.855240 300.391327,151.015472 305.209015,150.428101 
	C304.364532,151.197708 303.708160,151.716278 303.051819,152.234833 
	C295.966614,154.815140 288.881439,157.395432 281.394165,159.964722 
	C278.577087,159.328644 276.169739,158.223602 273.745392,158.185089 
	C269.562744,158.118637 265.361664,158.636215 261.182648,159.052551 
	C255.302887,159.638336 249.450272,160.638702 243.559723,160.930786 
	C238.431091,161.185074 233.264969,160.729294 228.117279,160.537247 
	C224.645264,160.407730 220.917068,159.290695 217.759979,160.200165 
	C211.075775,162.125641 205.851227,160.078079 200.510880,156.055054 
z"/>
<path fill="#C5B9BC" opacity="1.000000" stroke="none" 
	d="
M303.135284,152.563202 
	C303.708160,151.716278 304.364532,151.197708 305.539124,150.410477 
	C310.026825,146.706055 313.996246,143.270309 317.965698,139.834564 
	C321.431610,138.952408 324.897522,138.070236 328.991852,137.028137 
	C327.768097,143.664825 324.554321,149.043747 320.470032,154.690338 
	C319.393860,155.797379 318.707123,156.425705 318.020386,157.054016 
	C316.643280,151.666397 312.340302,153.003403 308.632416,152.966309 
	C306.827789,152.948257 305.023315,152.916916 303.135284,152.563202 
z"/>
<path fill="#0B0E11" opacity="1.000000" stroke="none" 
	d="
M317.881714,157.358215 
	C318.707123,156.425705 319.393860,155.797379 320.312653,155.005127 
	C322.068848,154.890732 323.593018,154.940277 325.574585,154.984772 
	C321.263885,159.302170 316.495728,163.624634 311.378571,167.997971 
	C310.365417,167.188721 309.701294,166.328613 308.985718,165.139618 
	C311.870514,162.427979 314.806763,160.045181 317.881714,157.358215 
z"/>
<path fill="#FCEBE8" opacity="1.000000" stroke="none" 
	d="
M317.611084,139.820602 
	C313.996246,143.270309 310.026825,146.706055 305.727234,150.159424 
	C300.391327,151.015472 295.385773,151.855240 290.379486,152.690781 
	C289.727295,152.799652 289.073181,152.958191 288.417114,152.973709 
	C273.576599,153.324951 258.733246,153.974228 243.895935,153.859436 
	C236.860580,153.805008 229.839020,152.263733 222.804443,151.454987 
	C221.878815,151.348557 220.744766,151.295883 219.992126,151.721786 
	C213.856873,155.193588 207.846878,157.180817 201.961273,151.233429 
	C201.580933,150.849091 200.689987,150.970016 199.611588,150.769897 
	C197.435562,144.399933 195.684525,138.115967 193.920197,131.034027 
	C195.290283,127.884613 196.673645,125.533195 198.115387,123.517014 
	C200.257797,125.302895 202.341843,126.753525 204.413116,128.195267 
	C204.108536,130.799301 202.671967,135.385574 203.657516,135.984207 
	C207.980484,138.610031 208.131485,145.350082 215.470291,145.650482 
	C219.847763,145.829681 223.155380,145.390396 226.814865,143.665192 
	C228.209808,143.007584 229.935745,142.589600 231.449585,142.728745 
	C237.246735,143.261597 243.030518,143.983551 248.796432,144.796906 
	C252.547989,145.326096 256.239166,146.309845 259.996918,146.759476 
	C262.616760,147.072922 265.323395,147.034164 267.956238,146.784134 
	C272.686554,146.334930 277.383636,145.199203 282.107635,145.118851 
	C286.418457,145.045502 289.964386,144.326996 291.123871,141.810028 
	C295.669464,140.325027 298.838287,139.289795 302.313660,138.216263 
	C303.027008,138.243073 303.433807,138.308182 304.137268,138.649139 
	C306.622375,138.983765 308.810760,139.042542 310.999146,139.101334 
	C313.084900,139.336441 315.170685,139.571548 317.611084,139.820602 
z"/>
<path fill="#1B070F" opacity="1.000000" stroke="none" 
	d="
M198.057022,123.181770 
	C196.673645,125.533195 195.290283,127.884613 193.804230,130.620880 
	C191.589905,130.212463 188.901367,129.982391 187.474380,128.520721 
	C183.134064,124.074760 179.184784,119.229141 175.328384,114.345543 
	C174.650620,113.487251 174.693558,111.484077 175.198776,110.370308 
	C177.063538,106.259483 175.614410,104.454987 171.454330,103.984741 
	C165.810867,103.346832 160.146515,102.800049 154.557251,101.832214 
	C152.842804,101.535339 151.345306,99.985466 149.748459,99.009377 
	C149.949417,98.339348 150.150360,97.669319 150.351318,96.999290 
	C153.065674,96.999290 155.780472,96.968567 158.494308,97.006248 
	C162.932434,97.067871 166.312088,95.399246 169.232513,91.878296 
	C171.037079,89.702682 173.867584,88.271103 176.435440,86.867668 
	C178.695038,85.632706 179.909241,84.662338 179.339478,81.553154 
	C179.012695,79.769867 180.647079,76.387451 182.245819,75.702477 
	C189.760895,72.482628 195.926636,68.102318 201.135269,61.553936 
	C206.831100,54.393078 216.325211,55.135357 224.370743,52.980049 
	C229.219162,51.681213 234.010010,50.167515 238.907715,48.391331 
	C242.028381,48.361473 245.068039,48.690647 248.546326,49.272362 
	C248.984955,49.524899 248.986679,50.019653 248.712891,50.287193 
	C238.421341,52.734509 228.389450,54.851906 218.390518,57.114899 
	C211.129532,58.758232 204.785309,61.299362 201.266647,69.016167 
	C199.713531,72.422264 195.436188,74.594574 192.370758,77.298805 
	C191.028076,78.483276 189.081833,79.324837 188.343735,80.792023 
	C185.680740,86.085480 183.415009,91.578796 180.749908,96.998451 
	C180.500549,97.000259 180.001831,97.003052 179.576523,97.001587 
	C175.960938,97.508080 172.770645,98.016037 168.515961,98.693474 
	C174.490479,100.549118 179.176620,101.817215 183.716095,103.484619 
	C186.450653,104.489059 191.188324,106.122520 191.183701,107.460045 
	C191.162506,113.594604 194.431702,117.661598 197.923447,121.860565 
	C198.086639,122.056808 197.945648,122.506004 197.937881,122.935097 
	C197.929443,123.032806 198.057022,123.181770 198.057022,123.181770 
z"/>
<path fill="#02F6E7" opacity="1.000000" stroke="none" 
	d="
M331.015869,184.938995 
	C332.954285,183.241592 335.149658,181.752441 336.748322,179.779755 
	C337.988281,178.249695 338.482819,176.115616 339.683502,173.403351 
	C345.113892,198.210693 340.138123,226.854218 320.824493,259.368713 
	C305.177979,285.709656 278.963989,299.679382 250.691376,309.478912 
	C250.309616,309.090912 249.927856,308.702942 249.546082,308.314941 
	C251.416382,306.196869 253.286682,304.078796 254.682495,302.498077 
	C255.799667,298.727631 256.832214,295.249634 257.860657,291.770416 
	C260.400696,283.177429 261.936279,274.563385 261.106873,265.446014 
	C260.160431,255.042389 257.348267,245.425339 251.760056,236.658783 
	C247.238358,229.565308 243.568436,228.507751 235.531998,231.397705 
	C231.520462,232.840240 227.433487,234.074554 223.435593,235.551819 
	C222.816498,235.780579 222.521652,236.831741 222.027451,237.463989 
	C220.564255,239.335968 219.076340,241.188614 216.649078,242.541595 
	C216.849365,239.590088 217.049652,236.638565 217.120178,233.342026 
	C216.990402,232.996994 217.021988,232.957504 217.379395,232.909515 
	C218.466171,231.248428 219.195541,229.635330 219.938293,227.993744 
	C219.951645,227.965271 219.994247,227.918976 220.331055,227.878769 
	C222.077667,225.546921 223.487503,223.255264 224.922150,220.710754 
	C224.969177,220.289948 224.991364,220.122025 225.376953,219.954681 
	C230.126328,216.635818 234.512299,213.316406 238.929749,209.970734 
	C238.961243,209.944458 239.035385,209.909454 239.315002,209.903687 
	C240.037720,209.602875 240.480804,209.307861 241.162552,208.736633 
	C242.288589,208.020615 243.136063,207.325027 244.069336,207.179428 
	C257.549774,205.076416 271.082153,203.277985 284.517029,200.921448 
	C293.881714,199.278824 303.337097,197.568298 312.335754,194.618484 
	C318.913330,192.462280 324.813660,188.240219 331.015869,184.938995 
z"/>
<path fill="#02B8E7" opacity="1.000000" stroke="none" 
	d="
M331.161865,184.629211 
	C324.813660,188.240219 318.913330,192.462280 312.335754,194.618484 
	C303.337097,197.568298 293.881714,199.278824 284.517029,200.921448 
	C271.082153,203.277985 257.549774,205.076416 244.069336,207.179428 
	C243.136063,207.325027 242.288589,208.020615 240.888702,208.758850 
	C239.929260,209.341339 239.482330,209.625397 239.035385,209.909454 
	C239.035385,209.909454 238.961243,209.944458 238.586060,210.016632 
	C233.811768,213.377258 229.412674,216.665695 225.013580,219.954132 
	C224.991364,220.122025 224.969177,220.289948 224.599274,220.788193 
	C222.832458,223.385330 221.413361,225.652145 219.994247,227.918976 
	C219.994247,227.918976 219.951645,227.965271 219.652863,228.150330 
	C218.576721,229.876099 217.799347,231.416809 217.021988,232.957504 
	C217.021988,232.957504 216.990402,232.996994 216.978271,233.020065 
	C215.761353,237.467773 214.556549,241.892410 213.219849,246.670334 
	C209.270691,254.186615 205.476425,261.362152 201.596664,268.491089 
	C201.252151,269.124176 200.351105,269.454315 199.353516,269.506287 
	C198.999603,266.979553 198.788757,264.845337 199.047012,262.769470 
	C199.548080,258.742035 197.692841,257.490540 194.024200,258.009766 
	C192.284073,245.294296 196.817474,233.918137 201.708755,222.660843 
	C203.200211,219.228241 203.218582,214.974915 208.033371,213.257751 
	C209.761932,212.641266 210.245514,208.921021 211.607925,206.818604 
	C215.796677,200.354645 222.283630,196.807495 228.364120,192.358078 
	C237.630341,185.577469 248.095978,184.808975 258.178406,182.822769 
	C268.045593,180.878967 278.463867,181.756790 288.636841,181.317474 
	C290.349670,181.243515 292.154297,181.046661 293.725800,180.424683 
	C296.874786,179.178345 299.757385,177.039566 302.988831,176.262115 
	C312.568909,173.957306 320.488251,168.927109 327.385437,162.189941 
	C329.049255,160.564713 329.759796,157.981232 330.988342,155.885101 
	C331.576233,154.882034 332.531403,153.117401 333.004425,153.215790 
	C334.195068,153.463486 335.821014,154.360107 336.175293,155.378326 
	C337.290253,158.582565 337.900482,161.962418 338.867462,165.643799 
	C339.154449,173.253799 334.397369,178.434937 331.161865,184.629211 
M202.679153,259.082245 
	C202.499191,258.572968 202.319229,258.063690 202.139282,257.554413 
	C201.877426,257.673096 201.615570,257.791779 201.353729,257.910461 
	C201.659058,258.434967 201.964371,258.959442 202.679153,259.082245 
z"/>
<path fill="#032539" opacity="1.000000" stroke="none" 
	d="
M208.716827,204.203918 
	C209.624664,202.227615 210.487381,199.807617 212.082413,198.053497 
	C218.380783,191.126755 225.853561,185.973206 235.602020,184.222382 
	C235.996490,184.446442 235.998703,184.913498 235.998703,184.913498 
	C225.337662,188.952499 216.474472,195.525070 208.716827,204.203918 
z"/>
<path fill="#03273B" opacity="1.000000" stroke="none" 
	d="
M241.443329,183.073486 
	C243.525238,181.944748 245.943954,180.111618 248.519882,179.854691 
	C256.449615,179.063766 264.439392,178.875534 272.709229,178.739502 
	C266.339874,179.673019 259.652954,180.203735 252.999893,181.012695 
	C249.255127,181.468048 245.566162,182.382462 241.443329,183.073486 
z"/>
<path fill="#07B3F0" opacity="1.000000" stroke="none" 
	d="
M194.027374,258.411041 
	C197.692841,257.490540 199.548080,258.742035 199.047012,262.769470 
	C198.788757,264.845337 198.999603,266.979553 198.997406,269.550873 
	C197.718597,268.359650 196.083527,266.862885 195.262985,265.006134 
	C194.432526,263.127014 194.408066,260.891632 194.027374,258.411041 
z"/>
<path fill="#03273B" opacity="1.000000" stroke="none" 
	d="
M275.406189,178.971588 
	C278.693054,175.710205 283.000977,175.662445 287.758057,176.835205 
	C283.968781,177.773193 279.903839,178.413864 275.406189,178.971588 
z"/>
<path fill="#03273B" opacity="1.000000" stroke="none" 
	d="
M236.346893,184.912323 
	C235.998703,184.913498 235.996490,184.446442 235.994995,184.212738 
	C237.421371,183.642929 238.849243,183.306839 240.664795,183.007446 
	C239.599991,183.666489 238.147537,184.288818 236.346893,184.912323 
z"/>
<path fill="#03273B" opacity="1.000000" stroke="none" 
	d="
M292.230896,176.540848 
	C292.185181,176.228485 292.404968,176.089981 292.880859,176.053864 
	C292.996552,176.401321 292.783020,176.587479 292.230896,176.540848 
z"/>
<path fill="#32172C" opacity="1.000000" stroke="none" 
	d="
M344.001221,96.997559 
	C346.107819,96.997559 348.214417,96.997559 350.321014,96.997559 
	C350.480927,97.604553 350.640839,98.211548 350.800751,98.818550 
	C348.611298,99.544182 346.462067,100.694328 344.223938,100.906624 
	C339.638733,101.341537 335.940582,102.773033 334.029358,107.684204 
	C332.844391,107.119713 331.707336,106.195404 330.044006,105.127960 
	C329.517700,104.984810 329.034027,104.977905 329.019409,104.629425 
	C328.346710,103.503365 327.688599,102.725792 327.026611,101.713257 
	C327.022736,101.478294 327.008545,101.007324 326.966797,100.661652 
	C324.948395,97.876671 322.971771,95.437370 320.995483,92.621185 
	C318.723907,88.740135 316.686646,85.050865 314.111481,81.785919 
	C311.728088,78.764168 309.021240,75.872757 305.995911,73.515549 
	C302.646729,70.905968 298.943481,68.601837 295.091125,66.820747 
	C288.852325,63.936302 282.365967,61.587269 275.590027,59.003284 
	C271.799347,58.329090 268.402710,57.663780 265.003479,56.666988 
	C264.998932,55.893623 264.997009,55.451733 265.299408,54.724335 
	C273.734283,55.223804 283.096954,49.794144 289.542328,59.183952 
	C289.784515,59.536808 290.439941,59.583977 290.865967,59.835896 
	C299.386841,64.874474 308.114929,69.608276 316.296326,75.149040 
	C318.937653,76.937820 321.444000,80.751640 321.680969,83.819191 
	C322.002930,87.987007 323.590790,90.323524 326.909515,91.885681 
	C330.191315,93.430450 333.630096,94.641785 337.280273,96.273582 
	C339.707428,96.697701 341.854309,96.847633 344.001221,96.997559 
z"/>
<path fill="#21060F" opacity="1.000000" stroke="none" 
	d="
M329.033997,104.977905 
	C329.034027,104.977905 329.517700,104.984810 329.759399,104.993256 
	C329.185577,108.040970 328.077148,110.989670 330.987305,113.782463 
	C331.675293,114.442719 331.356812,116.501846 331.031860,117.799957 
	C330.157471,121.292717 329.029449,124.721985 327.787231,128.760117 
	C328.048615,130.229172 328.524902,131.114594 329.001221,132.000000 
	C327.619629,131.584564 326.225677,131.205444 324.860321,130.742203 
	C323.770599,130.372498 322.200073,129.221878 321.727112,129.581299 
	C318.065094,132.364258 314.618103,135.430206 311.051819,138.754929 
	C308.810760,139.042542 306.622375,138.983765 304.281128,138.305603 
	C305.807190,133.035049 309.639923,131.067688 313.962097,129.517746 
	C324.326782,125.800934 326.848236,121.995323 327.090515,111.098534 
	C327.136169,109.044937 328.355988,107.017441 329.033997,104.977905 
z"/>
<path fill="#24060D" opacity="1.000000" stroke="none" 
	d="
M329.340271,131.957275 
	C328.524902,131.114594 328.048615,130.229172 327.787994,129.169556 
	C329.118744,129.095352 330.233826,129.195358 332.440552,129.393265 
	C331.068787,130.645828 330.374054,131.280182 329.340271,131.957275 
z"/>
<path fill="#231A30" opacity="1.000000" stroke="none" 
	d="
M343.944763,96.664825 
	C341.854309,96.847633 339.707428,96.697701 337.273987,95.902832 
	C335.843323,93.769119 334.526459,92.379929 333.596985,90.767456 
	C332.314606,88.542709 331.109772,86.224251 330.268616,83.807762 
	C329.395111,81.298416 329.851196,77.727577 328.233978,76.182846 
	C322.282867,70.498619 315.725067,65.447556 309.356628,60.205566 
	C308.739166,59.697342 307.866943,59.477848 307.089081,59.188538 
	C299.729004,56.451077 292.363770,53.727547 285.000000,51.000000 
	C287.655212,51.041061 290.643677,50.297413 292.907898,51.259079 
	C302.690765,55.414104 313.634796,57.163044 321.820709,64.753647 
	C322.118561,65.029839 322.775543,64.918785 323.631958,64.994560 
	C327.718567,68.836655 331.547943,72.574974 335.093872,76.565224 
	C336.213257,77.824883 337.641724,80.466171 337.109314,81.269920 
	C333.527771,86.676765 336.808350,89.748482 340.401917,92.920181 
	C341.619415,93.994736 342.729279,95.191292 343.944763,96.664825 
z"/>
<path fill="#2A192E" opacity="1.000000" stroke="none" 
	d="
M284.569061,51.000244 
	C292.363770,53.727547 299.729004,56.451077 307.089081,59.188538 
	C307.866943,59.477848 308.739166,59.697342 309.356628,60.205566 
	C315.725067,65.447556 322.282867,70.498619 328.233978,76.182846 
	C329.851196,77.727577 329.395111,81.298416 330.268616,83.807762 
	C331.109772,86.224251 332.314606,88.542709 333.596985,90.767456 
	C334.526459,92.379929 335.843323,93.769119 336.993713,95.628632 
	C333.630096,94.641785 330.191315,93.430450 326.909515,91.885681 
	C323.590790,90.323524 322.002930,87.987007 321.680969,83.819191 
	C321.444000,80.751640 318.937653,76.937820 316.296326,75.149040 
	C308.114929,69.608276 299.386841,64.874474 290.865967,59.835896 
	C290.439941,59.583977 289.784515,59.536808 289.542328,59.183952 
	C283.096954,49.794144 273.734283,55.223804 264.917114,54.713779 
	C260.822693,53.989559 257.414886,52.990379 253.784805,51.734360 
	C252.037247,50.991566 250.511963,50.505608 248.986679,50.019653 
	C248.986679,50.019653 248.984955,49.524899 248.981461,49.277874 
	C251.348770,48.427692 253.731644,47.296730 256.087433,47.350563 
	C259.268494,47.423260 262.443146,48.339985 265.593445,49.020145 
	C268.267395,49.597466 270.870819,50.689224 273.563324,50.945854 
	C277.058258,51.278965 280.610535,51.010185 284.569061,51.000244 
z"/>
<path fill="#FDE0DE" opacity="1.000000" stroke="none" 
	d="
M302.007080,138.254578 
	C298.838287,139.289795 295.669464,140.325027 291.123871,141.810028 
	C289.964386,144.326996 286.418457,145.045502 282.107635,145.118851 
	C277.383636,145.199203 272.686554,146.334930 267.956238,146.784134 
	C265.323395,147.034164 262.616760,147.072922 259.996918,146.759476 
	C256.239166,146.309845 252.547989,145.326096 248.796432,144.796906 
	C243.030518,143.983551 237.246735,143.261597 231.449585,142.728745 
	C229.935745,142.589600 228.209808,143.007584 226.814865,143.665192 
	C223.155380,145.390396 219.847763,145.829681 215.470291,145.650482 
	C208.131485,145.350082 207.980484,138.610031 203.657516,135.984207 
	C202.671967,135.385574 204.108536,130.799301 204.413116,128.195267 
	C202.341843,126.753525 200.257797,125.302895 198.115387,123.517014 
	C198.057022,123.181770 197.929443,123.032806 198.331512,122.993652 
	C200.821716,122.537155 202.909866,122.119804 205.442871,121.778648 
	C208.586029,121.976349 211.284332,122.097847 214.031464,122.559525 
	C215.631241,125.697159 214.653702,127.634613 211.618408,129.016693 
	C207.882858,129.777267 208.335114,132.582275 209.809082,133.802200 
	C214.191727,137.429520 218.356873,141.971298 224.766693,141.633423 
	C225.889435,141.574249 226.928497,139.927170 228.361053,138.965210 
	C231.264099,138.144257 233.800171,136.755447 236.362534,136.705093 
	C247.697723,136.482407 259.043579,136.792450 270.378082,136.554428 
	C272.940735,136.500610 275.473511,135.025024 278.409790,134.179153 
	C281.867310,134.688370 284.935028,135.222336 288.371399,135.876343 
	C289.763397,136.139664 290.786774,136.282928 292.118225,136.677109 
	C295.619904,137.370224 298.813477,137.812393 302.007080,138.254578 
z"/>
<path fill="#24060D" opacity="1.000000" stroke="none" 
	d="
M302.313660,138.216263 
	C298.813477,137.812393 295.619904,137.370224 292.346558,136.351898 
	C298.194641,133.170425 304.488892,131.154175 309.931549,127.768791 
	C314.101410,125.175079 317.918091,121.316002 320.575378,117.174934 
	C323.509979,112.601723 324.943298,107.065186 327.030487,101.948227 
	C327.688599,102.725792 328.346710,103.503365 329.019409,104.629417 
	C328.355988,107.017441 327.136169,109.044937 327.090515,111.098534 
	C326.848236,121.995323 324.326782,125.800934 313.962097,129.517746 
	C309.639923,131.067688 305.807190,133.035049 303.984436,138.029770 
	C303.433807,138.308182 303.027008,138.243073 302.313660,138.216263 
z"/>
<path fill="#2F040D" opacity="1.000000" stroke="none" 
	d="
M265.006104,56.998466 
	C268.402710,57.663780 271.799347,58.329090 275.703613,59.260071 
	C276.474640,60.021366 276.738007,60.516987 276.706299,61.288399 
	C273.944366,61.649769 271.269745,62.393429 269.051208,61.692818 
	C263.279053,59.869984 257.711731,59.596813 252.040970,61.784069 
	C251.449326,62.012272 250.703094,62.044033 250.070679,61.931171 
	C242.105942,60.509800 235.643356,63.536758 229.817215,68.610672 
	C229.104919,69.230995 228.141449,69.726143 227.219452,69.916626 
	C219.805710,71.448372 213.474014,74.347870 210.711105,82.168518 
	C210.473373,82.841438 209.623703,83.338501 208.985535,83.821045 
	C207.742630,84.760872 206.448120,85.632477 205.174973,86.532333 
	C206.450806,87.688248 207.726624,88.844170 209.001602,90.374741 
	C208.999207,91.498642 208.997665,92.247917 208.594757,92.999084 
	C203.984970,94.249748 199.681549,95.261963 195.625580,96.890472 
	C194.397858,97.383408 193.855209,99.582626 192.541809,101.000839 
	C189.506790,100.993439 186.794144,101.473221 184.396530,100.811508 
	C182.709747,100.345970 181.451447,98.327896 180.001831,97.003052 
	C180.001831,97.003052 180.500549,97.000259 181.166412,97.000237 
	C183.220566,96.998917 184.608871,96.997627 186.414322,96.997765 
	C190.699753,95.741943 194.618347,94.609497 198.381424,93.091461 
	C198.938934,92.866547 199.198517,90.645638 198.804962,89.665932 
	C198.392380,88.638855 197.027100,87.994499 195.144760,86.384460 
	C196.611755,85.472488 197.519928,84.578636 198.587418,84.303947 
	C202.296082,83.349632 203.703262,80.049622 206.132660,77.715462 
	C211.635956,72.427933 217.272736,66.422340 224.057648,63.509800 
	C236.913773,57.991070 251.010437,57.072414 265.006104,56.998466 
z"/>
<path fill="#1F070F" opacity="1.000000" stroke="none" 
	d="
M185.997162,96.996338 
	C184.608871,96.997627 183.220566,96.998917 181.415771,96.998428 
	C183.415009,91.578796 185.680740,86.085480 188.343735,80.792023 
	C189.081833,79.324837 191.028076,78.483276 192.370758,77.298805 
	C195.436188,74.594574 199.713531,72.422264 201.266647,69.016167 
	C204.785309,61.299362 211.129532,58.758232 218.390518,57.114899 
	C228.389450,54.851906 238.421341,52.734509 248.712891,50.287193 
	C250.511963,50.505608 252.037247,50.991566 253.487137,52.016144 
	C247.508392,53.724590 241.592987,54.837189 235.704803,56.078938 
	C228.573959,57.582745 221.433044,59.065159 214.371750,60.853901 
	C212.619843,61.297688 210.796509,62.587509 209.626343,64.001732 
	C204.905884,69.706596 201.172699,76.486946 195.645996,81.191483 
	C190.389267,85.666222 188.311127,91.194496 185.997162,96.996338 
z"/>
<path fill="#26070F" opacity="1.000000" stroke="none" 
	d="
M179.576523,97.001587 
	C181.451447,98.327896 182.709747,100.345970 184.396530,100.811508 
	C186.794144,101.473221 189.506790,100.993439 192.874359,101.001678 
	C194.107193,101.004272 194.550476,101.006569 195.039642,101.357399 
	C201.319290,106.919182 201.792587,114.987991 204.998016,121.702454 
	C202.909866,122.119804 200.821716,122.537155 198.339935,122.895950 
	C197.945648,122.506004 198.086639,122.056808 197.923447,121.860565 
	C194.431702,117.661598 191.162506,113.594604 191.183701,107.460045 
	C191.188324,106.122520 186.450653,104.489059 183.716095,103.484619 
	C179.176620,101.817215 174.490479,100.549118 168.515961,98.693474 
	C172.770645,98.016037 175.960938,97.508080 179.576523,97.001587 
z"/>
<path fill="#21DED6" opacity="1.000000" stroke="none" 
	d="
M225.376968,219.954681 
	C229.412674,216.665695 233.811768,213.377258 238.554565,210.042908 
	C234.512299,213.316406 230.126328,216.635818 225.376968,219.954681 
z"/>
<path fill="#21DED6" opacity="1.000000" stroke="none" 
	d="
M220.331055,227.878769 
	C221.413361,225.652145 222.832458,223.385330 224.574448,221.041061 
	C223.487503,223.255264 222.077667,225.546921 220.331055,227.878769 
z"/>
<path fill="#21DED6" opacity="1.000000" stroke="none" 
	d="
M217.379395,232.909515 
	C217.799347,231.416809 218.576721,229.876099 219.639496,228.178818 
	C219.195541,229.635330 218.466171,231.248428 217.379395,232.909515 
z"/>
<path fill="#21DED6" opacity="1.000000" stroke="none" 
	d="
M239.315002,209.903687 
	C239.482330,209.625397 239.929260,209.341339 240.650055,209.035065 
	C240.480804,209.307861 240.037720,209.602875 239.315002,209.903687 
z"/>
<path fill="#19A8D1" opacity="1.000000" stroke="none" 
	d="
M202.474426,259.283081 
	C201.964371,258.959442 201.659058,258.434967 201.353729,257.910461 
	C201.615570,257.791779 201.877426,257.673096 202.139282,257.554413 
	C202.319229,258.063690 202.499191,258.572968 202.474426,259.283081 
z"/>
<path fill="#38040D" opacity="1.000000" stroke="none" 
	d="
M209.002441,90.000107 
	C207.726624,88.844170 206.450806,87.688248 205.174973,86.532333 
	C206.448120,85.632477 207.742630,84.760872 208.985535,83.821045 
	C209.623703,83.338501 210.473373,82.841438 210.711105,82.168518 
	C213.474014,74.347870 219.805710,71.448372 227.219452,69.916626 
	C228.141449,69.726143 229.104919,69.230995 229.817215,68.610672 
	C235.643356,63.536758 242.105942,60.509800 250.070679,61.931171 
	C250.703094,62.044033 251.449326,62.012272 252.040970,61.784069 
	C257.711731,59.596813 263.279053,59.869984 269.051208,61.692818 
	C271.269745,62.393429 273.944366,61.649769 277.024536,61.428078 
	C284.649231,65.562195 292.007355,69.363388 298.582245,74.224060 
	C306.404480,80.006889 313.554077,86.699600 320.995117,92.998070 
	C322.971771,95.437370 324.948395,97.876671 326.598541,100.665009 
	C320.892853,103.983551 315.113434,106.122940 313.413757,113.435081 
	C312.701630,116.498817 309.441040,119.308609 306.731110,121.472473 
	C304.122406,123.555534 300.600281,124.452637 297.732452,126.270035 
	C296.188110,127.248711 295.174408,129.064667 293.893433,130.534805 
	C292.649536,130.056625 291.336517,129.551865 290.023499,129.047119 
	C291.923706,132.256683 285.129272,132.568924 288.002777,135.756287 
	C284.935028,135.222336 281.867310,134.688370 278.038086,134.037399 
	C274.186249,133.235077 271.095856,132.549774 268.052612,131.519363 
	C269.730896,127.846710 271.987915,126.062042 275.895660,127.724892 
	C276.402649,127.940620 277.289703,127.263138 278.451080,126.999832 
	C287.788513,128.044403 294.470215,122.807915 301.485443,118.788391 
	C303.216675,117.796448 304.364471,115.416168 305.277374,113.441521 
	C307.296387,109.074272 309.868317,105.570343 314.683197,103.838562 
	C317.310608,102.893555 319.592560,100.988068 322.030304,99.515732 
	C321.936981,98.958900 321.843628,98.402069 321.750305,97.845230 
	C319.830597,97.566574 317.910919,97.287910 315.618042,97.007530 
	C314.498383,97.001892 313.751953,96.997986 312.960907,96.644577 
	C311.953491,94.560875 311.116821,92.740410 310.001648,91.110474 
	C307.683777,87.722618 305.743225,83.807083 302.688843,81.256607 
	C298.252197,77.551910 294.899780,71.956154 288.251434,71.414467 
	C288.157013,71.406761 288.083344,71.143616 287.938354,70.660095 
	C286.916809,69.882027 285.956909,69.443558 284.602234,68.950439 
	C281.805817,68.595970 279.404114,68.296150 276.916992,67.628052 
	C272.235138,66.444893 267.632782,65.662132 263.043549,64.808746 
	C251.960815,62.747890 241.670807,64.273331 232.327728,71.038727 
	C229.963287,72.750847 226.872513,73.445610 224.455521,75.103569 
	C222.128693,76.699669 220.211258,78.905853 218.168747,80.900131 
	C215.088303,83.907837 212.055496,86.964340 209.002441,90.000107 
z"/>
<path fill="#26050E" opacity="1.000000" stroke="none" 
	d="
M186.414322,96.997765 
	C188.311127,91.194496 190.389267,85.666222 195.645996,81.191483 
	C201.172699,76.486946 204.905884,69.706596 209.626343,64.001732 
	C210.796509,62.587509 212.619843,61.297688 214.371750,60.853901 
	C221.433044,59.065159 228.573959,57.582745 235.704803,56.078938 
	C241.592987,54.837189 247.508392,53.724590 253.709412,52.272980 
	C257.414886,52.990379 260.822693,53.989559 264.612793,54.999290 
	C264.997009,55.451733 264.998932,55.893623 265.003479,56.666988 
	C251.010437,57.072414 236.913773,57.991070 224.057648,63.509800 
	C217.272736,66.422340 211.635956,72.427933 206.132660,77.715462 
	C203.703262,80.049622 202.296082,83.349632 198.587418,84.303947 
	C197.519928,84.578636 196.611755,85.472488 195.144760,86.384460 
	C197.027100,87.994499 198.392380,88.638855 198.804962,89.665932 
	C199.198517,90.645638 198.938934,92.866547 198.381424,93.091461 
	C194.618347,94.609497 190.699753,95.741943 186.414322,96.997765 
z"/>
<path fill="#2E040D" opacity="1.000000" stroke="none" 
	d="
M288.371399,135.876343 
	C285.129272,132.568924 291.923706,132.256683 290.023499,129.047119 
	C291.336517,129.551865 292.649536,130.056625 293.893433,130.534805 
	C295.174408,129.064667 296.188110,127.248711 297.732452,126.270035 
	C300.600281,124.452637 304.122406,123.555534 306.731110,121.472473 
	C309.441040,119.308609 312.701630,116.498817 313.413757,113.435081 
	C315.113434,106.122940 320.892853,103.983551 326.640289,101.010681 
	C327.008545,101.007324 327.022736,101.478294 327.026611,101.713257 
	C324.943298,107.065186 323.509979,112.601723 320.575378,117.174934 
	C317.918091,121.316002 314.101410,125.175079 309.931549,127.768791 
	C304.488892,131.154175 298.194641,133.170425 292.038452,136.100967 
	C290.786774,136.282928 289.763397,136.139664 288.371399,135.876343 
z"/>
<path fill="#3B1426" opacity="1.000000" stroke="none" 
	d="
M320.995483,92.621185 
	C313.554077,86.699600 306.404480,80.006889 298.582245,74.224060 
	C292.007355,69.363388 284.649231,65.562195 277.319641,61.152290 
	C276.738007,60.516987 276.474640,60.021366 276.097687,59.268951 
	C282.365967,61.587269 288.852325,63.936302 295.091125,66.820747 
	C298.943481,68.601837 302.646729,70.905968 305.995911,73.515549 
	C309.021240,75.872757 311.728088,78.764168 314.111481,81.785919 
	C316.686646,85.050865 318.723907,88.740135 320.995483,92.621185 
z"/>
<path fill="#F9CCCB" opacity="1.000000" stroke="none" 
	d="
M268.005493,131.864471 
	C271.095856,132.549774 274.186249,133.235077 277.648315,134.062149 
	C275.473511,135.025024 272.940735,136.500610 270.378082,136.554428 
	C259.043579,136.792450 247.697723,136.482407 236.362534,136.705093 
	C233.800171,136.755447 231.264099,138.144257 227.971634,138.951172 
	C222.331009,136.434372 217.410782,133.926682 212.576614,131.262848 
	C212.111923,131.006775 212.182281,129.779724 212.004272,129.003433 
	C214.653702,127.634613 215.631241,125.697159 214.428482,122.481163 
	C215.851486,122.060432 216.926270,122.058235 218.258179,122.186127 
	C218.889969,122.281410 219.264664,122.246597 219.735092,122.382034 
	C219.830841,122.552292 220.059479,122.869041 220.049713,123.280640 
	C222.786728,126.447693 225.514603,129.222702 228.311417,131.926376 
	C228.572037,132.178329 229.284775,131.902695 229.761230,132.000473 
	C234.977371,133.070923 238.287903,129.530914 242.411713,126.970612 
	C246.212158,127.580902 249.605347,128.191635 253.373901,128.936951 
	C258.501343,130.002487 263.253418,130.933472 268.005493,131.864471 
z"/>
<path fill="#2F040D" opacity="1.000000" stroke="none" 
	d="
M218.001053,122.056038 
	C216.926270,122.058235 215.851486,122.060432 214.379669,122.140984 
	C211.284332,122.097847 208.586029,121.976349 205.442871,121.778641 
	C201.792587,114.987991 201.319290,106.919182 195.406525,101.398972 
	C199.428177,103.295601 203.740128,104.910477 206.621811,107.902740 
	C208.657394,110.016434 210.169815,111.348091 213.000305,110.999847 
	C213.000610,111.000000 213.006104,111.000610 213.005005,111.402916 
	C213.926529,113.689941 214.851349,115.573601 215.771164,117.459702 
	C216.517578,118.990288 217.257980,120.523811 218.001053,122.056038 
z"/>
<path fill="#FDD9D7" opacity="1.000000" stroke="none" 
	d="
M211.618408,129.016693 
	C212.182281,129.779724 212.111923,131.006775 212.576614,131.262848 
	C217.410782,133.926682 222.331009,136.434372 227.616760,138.999420 
	C226.928497,139.927170 225.889435,141.574249 224.766693,141.633423 
	C218.356873,141.971298 214.191727,137.429520 209.809082,133.802200 
	C208.335114,132.582275 207.882858,129.777267 211.618408,129.016693 
z"/>
<path fill="#40020B" opacity="1.000000" stroke="none" 
	d="
M209.001602,90.374741 
	C212.055496,86.964340 215.088303,83.907837 218.168747,80.900131 
	C220.211258,78.905853 222.128693,76.699669 224.455521,75.103569 
	C226.872513,73.445610 229.963287,72.750847 232.327728,71.038727 
	C241.670807,64.273331 251.960815,62.747890 263.043549,64.808746 
	C267.632782,65.662132 272.235138,66.444893 276.621979,67.655037 
	C275.941193,68.365700 275.470001,68.681099 274.665863,68.997162 
	C273.889038,68.998047 273.445129,68.998260 272.696777,68.715813 
	C264.916962,68.025864 257.223602,66.340073 250.026703,67.566818 
	C242.663162,68.821976 234.763763,70.653496 229.190277,76.873657 
	C222.528290,84.308601 215.734344,91.625336 208.733093,99.021103 
	C208.645966,100.031845 208.823288,101.014748 208.766815,102.255920 
	C205.705109,101.786186 202.877228,101.058189 200.049362,100.330200 
	C199.948807,99.872993 199.848267,99.415787 199.747711,98.958580 
	C201.268677,98.005714 202.799622,97.068344 204.307846,96.095703 
	C205.881989,95.080551 207.434250,94.031441 208.996094,92.997177 
	C208.997665,92.247917 208.999207,91.498642 209.001602,90.374741 
z"/>
<path fill="#38040D" opacity="1.000000" stroke="none" 
	d="
M208.594757,92.999084 
	C207.434250,94.031441 205.881989,95.080551 204.307846,96.095703 
	C202.799622,97.068344 201.268677,98.005714 199.747711,98.958580 
	C199.848267,99.415787 199.948807,99.872993 200.049362,100.330200 
	C202.877228,101.058189 205.705109,101.786186 209.164886,102.259521 
	C211.858444,102.347069 213.920120,102.689278 215.984375,103.411545 
	C214.991302,106.194305 213.995651,108.597000 213.000000,110.999695 
	C210.169815,111.348091 208.657394,110.016434 206.621811,107.902740 
	C203.740128,104.910477 199.428177,103.295601 195.360657,101.050446 
	C194.550476,101.006569 194.107193,101.004272 193.331329,101.001137 
	C193.855209,99.582626 194.397858,97.383408 195.625580,96.890472 
	C199.681549,95.261963 203.984970,94.249748 208.594757,92.999084 
z"/>
<path fill="#550209" opacity="1.000000" stroke="none" 
	d="
M252.998550,128.802383 
	C249.605347,128.191635 246.212158,127.580902 242.210205,126.769852 
	C241.074921,126.355431 240.548401,126.141327 240.227966,125.676041 
	C241.614761,124.280006 242.795456,123.135139 244.154999,121.755119 
	C244.884598,121.341881 245.435349,121.163795 246.355057,120.983345 
	C248.668625,121.318733 250.622650,121.611229 252.553772,122.013649 
	C253.493683,122.209511 254.529663,123.071732 255.284760,122.844261 
	C260.226654,121.355484 265.103638,119.651093 270.333801,118.010406 
	C271.108093,118.012337 271.550354,118.021011 272.006897,118.407318 
	C272.603424,122.127892 274.736511,120.890297 276.555817,120.253700 
	C281.197601,118.629456 285.859589,117.044159 290.412262,115.194221 
	C292.008850,114.545464 293.914459,113.476128 294.627594,112.066841 
	C296.409576,108.545166 297.589111,104.718636 299.434814,101.008423 
	C301.558838,100.990402 303.258453,100.978386 305.316895,100.933990 
	C306.450104,99.601379 307.224426,98.301147 308.415894,96.999619 
	C310.223846,96.996895 311.614685,96.995483 313.005524,96.994080 
	C313.751953,96.997986 314.498383,97.001892 315.662201,97.362213 
	C315.509766,98.840378 315.191803,100.641640 314.325287,100.962784 
	C311.089142,102.162132 307.688049,102.937607 304.320343,103.754639 
	C301.273590,104.493797 299.842407,106.277008 299.981903,109.450165 
	C300.193359,114.259491 297.231018,117.166496 293.440979,119.196182 
	C289.412811,121.353424 285.155853,123.083435 280.535645,124.999298 
	C278.260773,124.998856 276.442566,125.098228 274.638428,124.981255 
	C268.573792,124.588074 262.598511,128.501602 256.371490,125.351845 
	C255.939499,125.133324 254.154404,127.589844 252.998550,128.802383 
z"/>
<path fill="#47010A" opacity="1.000000" stroke="none" 
	d="
M312.960907,96.644569 
	C311.614685,96.995483 310.223846,96.996895 308.039673,96.998085 
	C306.493805,96.991982 305.741302,96.986115 304.732056,96.749687 
	C303.272858,95.610603 301.892181,94.860069 300.912048,93.754463 
	C299.621735,92.298958 298.147614,90.702324 297.653473,88.917015 
	C296.930725,86.305649 297.389130,83.365913 296.657562,80.758781 
	C295.463593,76.503914 292.471252,74.703415 287.675385,75.856606 
	C283.233429,73.473694 279.116119,71.235092 274.998779,68.996490 
	C275.470001,68.681099 275.941193,68.365700 276.707428,68.023323 
	C279.404114,68.296150 281.805817,68.595970 284.664978,69.289230 
	C286.081635,70.121681 287.040802,70.560692 288.000000,70.999695 
	C288.083344,71.143616 288.157013,71.406761 288.251434,71.414467 
	C294.899780,71.956154 298.252197,77.551910 302.688843,81.256607 
	C305.743225,83.807083 307.683777,87.722618 310.001648,91.110474 
	C311.116821,92.740410 311.953491,94.560875 312.960907,96.644569 
z"/>
<path fill="#45010B" opacity="1.000000" stroke="none" 
	d="
M280.998779,124.999992 
	C285.155853,123.083435 289.412811,121.353424 293.440979,119.196182 
	C297.231018,117.166496 300.193359,114.259491 299.981903,109.450165 
	C299.842407,106.277008 301.273590,104.493797 304.320343,103.754639 
	C307.688049,102.937607 311.089142,102.162132 314.325287,100.962784 
	C315.191803,100.641640 315.509766,98.840378 316.035400,97.363937 
	C317.910919,97.287910 319.830597,97.566574 321.750305,97.845230 
	C321.843628,98.402069 321.936981,98.958900 322.030304,99.515732 
	C319.592560,100.988068 317.310608,102.893555 314.683197,103.838562 
	C309.868317,105.570343 307.296387,109.074272 305.277374,113.441521 
	C304.364471,115.416168 303.216675,117.796448 301.485443,118.788391 
	C294.470215,122.807915 287.788513,128.044403 278.644226,126.757591 
	C279.257599,126.009949 280.128174,125.504967 280.998779,124.999992 
z"/>
<path fill="#48050E" opacity="1.000000" stroke="none" 
	d="
M280.535645,124.999298 
	C280.128174,125.504967 279.257599,126.009949 278.193848,126.757156 
	C277.289703,127.263138 276.402649,127.940620 275.895660,127.724892 
	C271.987915,126.062042 269.730896,127.846710 268.052612,131.519379 
	C263.253418,130.933472 258.501343,130.002487 253.373901,128.936951 
	C254.154404,127.589844 255.939499,125.133324 256.371490,125.351845 
	C262.598511,128.501602 268.573792,124.588074 274.638428,124.981255 
	C276.442566,125.098228 278.260773,124.998856 280.535645,124.999298 
z"/>
<path fill="#40020B" opacity="1.000000" stroke="none" 
	d="
M287.938354,70.660095 
	C287.040802,70.560692 286.081635,70.121681 285.059692,69.343880 
	C285.956909,69.443558 286.916809,69.882027 287.938354,70.660095 
z"/>
<path fill="#45040B" opacity="1.000000" stroke="none" 
	d="
M213.000305,110.999847 
	C213.995651,108.597000 214.991302,106.194305 216.388245,103.403046 
	C218.867844,103.550880 220.946152,104.087265 224.318115,104.957535 
	C221.662933,106.558044 220.386429,107.327499 217.812927,108.878769 
	C221.531418,110.538315 224.272858,111.850487 227.083221,112.993156 
	C230.438858,114.357529 230.800873,116.128387 228.443741,118.801155 
	C227.359375,120.030731 226.786133,121.711075 225.555939,123.187500 
	C223.440323,123.081665 221.749893,122.975357 220.059479,122.869041 
	C220.059479,122.869041 219.830841,122.552292 220.021545,122.184067 
	C219.871170,116.826546 216.274872,111.429085 213.006104,111.000610 
	C213.006104,111.000610 213.000610,111.000000 213.000305,110.999847 
z"/>
<path fill="#F7B5B7" opacity="1.000000" stroke="none" 
	d="
M220.049713,123.280640 
	C221.749893,122.975357 223.440323,123.081665 225.854660,123.401466 
	C228.030487,123.809418 229.482407,124.003876 231.235336,124.433830 
	C234.364868,125.088623 237.193375,125.507919 240.021881,125.927216 
	C240.548401,126.141327 241.074921,126.355431 241.802963,126.770302 
	C238.287903,129.530914 234.977371,133.070923 229.761230,132.000473 
	C229.284775,131.902695 228.572037,132.178329 228.311417,131.926376 
	C225.514603,129.222702 222.786728,126.447693 220.049713,123.280640 
z"/>
<path fill="#3D0D12" opacity="1.000000" stroke="none" 
	d="
M213.005005,111.402916 
	C216.274872,111.429085 219.871170,116.826546 219.925797,122.013817 
	C219.264664,122.246597 218.889969,122.281410 218.258179,122.186127 
	C217.257980,120.523811 216.517578,118.990288 215.771164,117.459702 
	C214.851349,115.573601 213.926529,113.689941 213.005005,111.402916 
z"/>
<path fill="#47010A" opacity="1.000000" stroke="none" 
	d="
M208.997559,98.993271 
	C215.734344,91.625336 222.528290,84.308601 229.190277,76.873657 
	C234.763763,70.653496 242.663162,68.821976 250.026703,67.566818 
	C257.223602,66.340073 264.916962,68.025864 272.392944,68.999474 
	C265.251892,69.725380 258.096069,69.679863 250.977631,70.173561 
	C248.928101,70.315712 246.986313,72.011597 244.579346,72.996361 
	C241.427109,73.850967 238.121078,74.007935 236.063187,75.691002 
	C230.370071,80.347122 225.066116,85.509804 219.885696,90.746643 
	C217.872025,92.782249 216.601822,95.553337 214.609406,97.999489 
	C212.483093,98.337479 210.740326,98.665375 208.997559,98.993271 
z"/>
<path fill="#59030A" opacity="1.000000" stroke="none" 
	d="
M208.733093,99.021103 
	C210.740326,98.665375 212.483093,98.337479 214.971420,97.959747 
	C218.810715,95.939438 221.904449,93.968964 224.998947,92.373993 
	C225.000443,93.500496 225.001175,94.251472 224.873703,95.294395 
	C224.494171,96.386826 224.242813,97.187317 223.591125,97.990570 
	C221.247437,98.417183 219.304092,98.841034 217.360733,99.264877 
	C217.429306,99.908379 217.497879,100.551880 217.566467,101.195381 
	C221.378052,101.797531 225.189636,102.399673 228.996216,103.367569 
	C229.527328,105.697250 230.176422,107.638695 230.572784,109.630432 
	C231.151474,112.538155 231.789536,115.469955 231.936920,118.414787 
	C232.032349,120.321129 231.297241,122.269043 230.934311,124.198334 
	C229.482407,124.003876 228.030487,123.809418 226.279861,123.400986 
	C226.786133,121.711075 227.359375,120.030731 228.443741,118.801155 
	C230.800873,116.128387 230.438858,114.357529 227.083221,112.993156 
	C224.272858,111.850487 221.531418,110.538315 217.812927,108.878769 
	C220.386429,107.327499 221.662933,106.558044 224.318115,104.957535 
	C220.946152,104.087265 218.867844,103.550880 216.385666,103.022987 
	C213.920120,102.689278 211.858444,102.347069 209.398697,102.001259 
	C208.823288,101.014748 208.645966,100.031845 208.733093,99.021103 
z"/>
<path fill="#500108" opacity="1.000000" stroke="none" 
	d="
M244.995117,72.995117 
	C246.986313,72.011597 248.928101,70.315712 250.977631,70.173561 
	C258.096069,69.679863 265.251892,69.725380 272.697357,69.282135 
	C273.445129,68.998260 273.889038,68.998047 274.665863,68.997162 
	C279.116119,71.235092 283.233429,73.473694 287.675385,76.109039 
	C287.999939,76.674072 287.999878,76.842369 287.549866,77.008842 
	C284.400696,77.002892 281.701447,76.998764 278.958923,76.646523 
	C277.342285,73.662933 275.773041,71.018860 271.533691,73.002884 
	C262.379944,73.002892 253.691345,73.003349 245.001343,73.001938 
	C244.999954,73.000053 244.995117,72.995117 244.995117,72.995117 
z"/>
<path fill="#7D0507" opacity="1.000000" stroke="none" 
	d="
M271.992615,118.029686 
	C271.550354,118.021011 271.108093,118.012337 270.042114,117.725761 
	C266.993469,117.308891 264.562561,116.990189 262.145020,117.071175 
	C258.057770,117.208084 253.979019,117.597832 249.933868,117.527176 
	C250.495407,113.963776 252.414993,115.196495 254.002136,116.016464 
	C256.213867,117.159119 257.073151,116.463577 257.440186,114.122574 
	C265.577454,115.729378 273.105835,115.263466 280.204254,111.632576 
	C283.180817,110.110039 285.949951,108.148972 284.510468,103.990959 
	C285.564880,103.320984 286.283051,102.659882 287.329834,101.987389 
	C288.096802,101.966415 288.535156,101.956833 289.149780,102.193649 
	C289.886658,102.628677 290.447266,102.817299 290.956421,103.387344 
	C290.014099,106.739479 289.123260,109.710190 288.443237,111.977837 
	C282.601135,114.127022 277.296875,116.078354 271.992615,118.029686 
z"/>
<path fill="#660205" opacity="1.000000" stroke="none" 
	d="
M272.006897,118.407318 
	C277.296875,116.078354 282.601135,114.127022 288.443237,111.977837 
	C289.123260,109.710190 290.014099,106.739479 291.213135,103.277000 
	C292.015839,102.526070 292.510376,102.266907 293.391785,102.006485 
	C295.522552,101.674965 297.266479,101.344696 299.010376,101.014420 
	C297.589111,104.718636 296.409576,108.545166 294.627594,112.066841 
	C293.914459,113.476128 292.008850,114.545464 290.412262,115.194221 
	C285.859589,117.044159 281.197601,118.629456 276.555817,120.253700 
	C274.736511,120.890297 272.603424,122.127892 272.006897,118.407318 
z"/>
<path fill="#6A0509" opacity="1.000000" stroke="none" 
	d="
M231.235336,124.433830 
	C231.297241,122.269043 232.032349,120.321129 231.936920,118.414787 
	C231.789536,115.469955 231.151474,112.538155 230.572784,109.630432 
	C230.176422,107.638695 229.527328,105.697250 229.349792,103.358345 
	C230.179047,102.954865 230.649734,102.926353 231.505768,102.911438 
	C232.929077,102.941078 233.967041,102.957115 234.994934,103.325394 
	C234.487381,104.958496 233.989914,106.239372 233.970642,106.288994 
	C235.689651,109.143303 236.858719,111.084465 238.020660,113.021072 
	C238.013550,113.016518 238.028107,113.029564 237.672913,113.084854 
	C233.758987,115.063652 234.855881,118.754639 236.349503,120.228447 
	C237.931183,121.789169 241.356216,121.481750 243.976135,121.990280 
	C242.795456,123.135139 241.614761,124.280006 240.227966,125.676041 
	C237.193375,125.507919 234.364868,125.088623 231.235336,124.433830 
z"/>
<path fill="#660205" opacity="1.000000" stroke="none" 
	d="
M249.896683,117.881279 
	C253.979019,117.597832 258.057770,117.208084 262.145020,117.071175 
	C264.562561,116.990189 266.993469,117.308891 269.710083,117.732506 
	C265.103638,119.651093 260.226654,121.355484 255.284760,122.844261 
	C254.529663,123.071732 253.493683,122.209511 252.553772,122.013649 
	C250.622650,121.611229 248.668625,121.318733 246.387619,120.667549 
	C246.369583,119.572418 246.687958,118.790718 247.368805,117.996674 
	C248.453064,117.949974 249.174881,117.915627 249.896683,117.881279 
z"/>
<path fill="#7B0304" opacity="1.000000" stroke="none" 
	d="
M247.006348,118.009026 
	C246.687958,118.790718 246.369583,119.572418 246.018646,120.669914 
	C245.435349,121.163795 244.884598,121.341881 244.154999,121.755127 
	C241.356216,121.481750 237.931183,121.789169 236.349503,120.228447 
	C234.855881,118.754639 233.758987,115.063652 237.713684,113.438812 
	C239.680954,118.065239 243.254150,118.223541 247.006348,118.009026 
z"/>
<path fill="#7D0507" opacity="1.000000" stroke="none" 
	d="
M299.434814,101.008423 
	C297.266479,101.344696 295.522552,101.674965 293.399689,101.645027 
	C294.014648,99.857613 295.008545,98.430397 296.297424,96.892517 
	C298.061584,96.854256 299.530792,96.926666 301.318695,97.140762 
	C302.757843,97.520912 303.878296,97.759392 304.995972,98.369339 
	C304.981476,99.482674 304.969757,100.224518 304.958038,100.966370 
	C303.258453,100.978386 301.558838,100.990402 299.434814,101.008423 
z"/>
<path fill="#5F0106" opacity="1.000000" stroke="none" 
	d="
M305.316895,100.933990 
	C304.969757,100.224518 304.981476,99.482674 304.993591,98.114944 
	C304.992279,97.319466 304.990540,97.149849 304.988770,96.980240 
	C305.741302,96.986115 306.493805,96.991982 307.622559,96.999390 
	C307.224426,98.301147 306.450104,99.601379 305.316895,100.933990 
z"/>
<path fill="#550107" opacity="1.000000" stroke="none" 
	d="
M304.732056,96.749680 
	C304.990540,97.149849 304.992279,97.319466 304.996368,97.743469 
	C303.878296,97.759392 302.757843,97.520912 301.246826,96.792465 
	C299.748749,95.747009 298.328949,95.452118 297.601135,94.579842 
	C296.238983,92.947311 294.019348,90.682220 294.369202,89.203941 
	C295.840271,82.987823 292.853149,79.637810 287.999786,77.010674 
	C287.999878,76.842369 287.999939,76.674072 288.000000,76.253349 
	C292.471252,74.703415 295.463593,76.503914 296.657562,80.758781 
	C297.389130,83.365913 296.930725,86.305649 297.653473,88.917015 
	C298.147614,90.702324 299.621735,92.298958 300.912048,93.754463 
	C301.892181,94.860069 303.272858,95.610603 304.732056,96.749680 
z"/>
<path fill="#500108" opacity="1.000000" stroke="none" 
	d="
M224.998169,91.998482 
	C221.904449,93.968964 218.810715,95.939438 215.354965,97.949661 
	C216.601822,95.553337 217.872025,92.782249 219.885696,90.746643 
	C225.066116,85.509804 230.370071,80.347122 236.063187,75.691002 
	C238.121078,74.007935 241.427109,73.850967 244.579346,72.996353 
	C244.995117,72.995117 244.999954,73.000053 244.845428,73.303345 
	C238.126663,79.737251 231.562424,85.867867 224.998169,91.998482 
z"/>
<path fill="#5F0106" opacity="1.000000" stroke="none" 
	d="
M224.998947,92.373993 
	C231.562424,85.867867 238.126663,79.737251 244.846832,73.305222 
	C253.691345,73.003349 262.379944,73.002892 271.693054,73.308426 
	C274.545776,74.741158 276.774017,75.867897 279.002228,76.994637 
	C281.701447,76.998764 284.400696,77.002892 287.549866,77.008842 
	C292.853149,79.637810 295.840271,82.987823 294.369202,89.203941 
	C294.019348,90.682220 296.238983,92.947311 297.601135,94.579842 
	C298.328949,95.452118 299.748749,95.747009 300.928131,96.650787 
	C299.530792,96.926666 298.061584,96.854256 296.051208,96.883690 
	C295.510040,96.985535 295.017548,96.973495 294.970703,96.631821 
	C293.803772,94.878593 292.573456,93.537628 291.606384,92.028038 
	C291.058716,91.173172 290.491425,89.931763 290.705231,89.052200 
	C292.224823,82.801369 290.905640,81.146988 283.615662,81.010880 
	C282.493896,81.010895 281.746033,81.012100 280.779358,80.734291 
	C275.808960,79.303322 271.106873,77.812096 266.289764,77.108391 
	C262.539490,76.560539 258.317200,77.954987 254.887100,76.782425 
	C248.485962,74.594238 244.968430,78.426186 240.974701,81.749229 
	C239.855972,82.680077 238.986069,83.909973 237.702271,84.876831 
	C236.349701,85.385468 235.180283,85.885506 234.265228,86.678909 
	C231.129303,89.397896 228.082611,92.219788 225.001892,95.002457 
	C225.001175,94.251472 225.000443,93.500496 224.998947,92.373993 
z"/>
<path fill="#780408" opacity="1.000000" stroke="none" 
	d="
M231.120422,102.897842 
	C230.649734,102.926353 230.179047,102.954865 229.354797,102.992599 
	C225.189636,102.399673 221.378052,101.797531 217.566467,101.195381 
	C217.497879,100.551880 217.429306,99.908379 217.360733,99.264877 
	C219.304092,98.841034 221.247437,98.417183 223.974777,97.945488 
	C231.062851,96.766121 235.804535,93.877831 237.273300,87.270813 
	C237.729675,88.781174 237.916992,90.027672 238.046112,91.630943 
	C237.637711,93.650917 237.287491,95.314110 236.541138,96.995682 
	C232.625824,97.865654 229.106659,98.717255 225.287476,99.641449 
	C227.558228,100.909157 229.339325,101.903503 231.120422,102.897842 
z"/>
<path fill="#660204" opacity="1.000000" stroke="none" 
	d="
M237.004257,87.006958 
	C235.804535,93.877831 231.062851,96.766121 224.375122,97.942719 
	C224.242813,97.187317 224.494171,96.386826 224.873703,95.294388 
	C228.082611,92.219788 231.129303,89.397896 234.265228,86.678909 
	C235.180283,85.885506 236.349701,85.385468 237.590881,85.133972 
	C237.520905,86.013649 237.262573,86.510300 237.004257,87.006958 
z"/>
<path fill="#550107" opacity="1.000000" stroke="none" 
	d="
M278.958923,76.646523 
	C276.774017,75.867897 274.545776,74.741158 272.158203,73.308884 
	C275.773041,71.018860 277.342285,73.662933 278.958923,76.646523 
z"/>
<path fill="#F86160" opacity="1.000000" stroke="none" 
	d="
M284.174225,103.999832 
	C285.949951,108.148972 283.180817,110.110039 280.204254,111.632576 
	C273.105835,115.263466 265.577454,115.729378 257.115967,114.000900 
	C255.145859,113.313683 253.916183,112.732933 252.922531,111.846848 
	C254.481384,111.216415 255.787949,110.727325 257.129852,110.594078 
	C263.557098,109.955933 270.396576,111.287598 276.084747,107.090485 
	C278.944885,104.980125 281.428314,102.359268 284.321655,100.165924 
	C284.792358,100.931625 285.023529,101.500671 285.101868,102.310898 
	C284.690765,103.034660 284.432495,103.517250 284.174225,103.999832 
z"/>
<path fill="#A80508" opacity="1.000000" stroke="none" 
	d="
M285.254700,102.069725 
	C285.023529,101.500671 284.792358,100.931625 284.274109,99.817139 
	C279.246613,93.022804 274.543518,86.722488 265.406891,86.076332 
	C263.585876,85.486229 262.114929,84.873962 260.973389,84.168282 
	C261.527039,84.032249 261.751282,83.989632 262.347351,83.924408 
	C265.145660,83.597176 267.572235,83.292542 270.327271,82.995621 
	C271.093811,83.009323 271.531891,83.015312 272.089905,83.232300 
	C272.409454,83.709877 272.664459,83.903419 272.978027,84.022964 
	C272.981110,84.021996 272.965332,84.037712 273.017944,84.399689 
	C274.505951,85.300949 276.045258,86.473694 277.356934,86.258530 
	C281.015747,85.658363 283.248444,86.304558 282.987518,90.539497 
	C282.722961,94.833122 284.817566,96.534035 289.006775,96.365570 
	C291.044067,98.469337 290.570679,100.217972 288.973480,101.947250 
	C288.535156,101.956833 288.096802,101.966415 287.038391,101.991554 
	C286.030457,102.027985 285.642578,102.048851 285.254700,102.069725 
z"/>
<path fill="#9F0408" opacity="1.000000" stroke="none" 
	d="
M252.686523,112.152191 
	C253.916183,112.732933 255.145859,113.313683 256.699738,114.016098 
	C257.073151,116.463577 256.213867,117.159119 254.002136,116.016464 
	C252.414993,115.196495 250.495407,113.963776 249.933868,117.527176 
	C249.174881,117.915627 248.453064,117.949974 247.368805,117.996674 
	C243.254150,118.223541 239.680954,118.065239 238.068863,113.383514 
	C238.028107,113.029564 238.013550,113.016518 238.382660,113.011635 
	C240.567856,111.322098 242.383926,109.637451 244.473541,108.070183 
	C245.465576,108.448990 246.184082,108.710411 246.954605,109.342926 
	C248.899933,110.526741 250.793228,111.339462 252.686523,112.152191 
z"/>
<path fill="#800204" opacity="1.000000" stroke="none" 
	d="
M289.149780,102.193649 
	C290.570679,100.217972 291.044067,98.469337 289.022461,96.349159 
	C288.980621,96.019897 289.010773,95.989487 289.397034,95.992722 
	C291.528046,96.321800 293.272797,96.647652 295.017548,96.973495 
	C295.017548,96.973495 295.510040,96.985535 295.756226,96.994362 
	C295.008545,98.430397 294.014648,99.857613 293.012817,101.646286 
	C292.510376,102.266907 292.015839,102.526070 291.264587,102.895584 
	C290.447266,102.817299 289.886658,102.628677 289.149780,102.193649 
z"/>
<path fill="#800204" opacity="1.000000" stroke="none" 
	d="
M285.101868,102.310898 
	C285.642578,102.048851 286.030457,102.027985 286.709778,102.002953 
	C286.283051,102.659882 285.564880,103.320984 284.510468,103.990967 
	C284.432495,103.517250 284.690765,103.034660 285.101868,102.310898 
z"/>
<path fill="#7B0303" opacity="1.000000" stroke="none" 
	d="
M244.199997,107.952805 
	C242.383926,109.637451 240.567856,111.322098 238.389771,113.016190 
	C236.858719,111.084465 235.689651,109.143303 233.970642,106.288994 
	C233.989914,106.239372 234.487381,104.958496 235.333740,103.293350 
	C236.772049,102.622696 237.861496,102.336319 239.175552,102.286285 
	C241.000122,104.332680 242.600052,106.142738 244.199997,107.952805 
z"/>
<path fill="#A6060C" opacity="1.000000" stroke="none" 
	d="
M238.950928,102.049942 
	C237.861496,102.336319 236.772049,102.622696 235.343811,102.941116 
	C233.967041,102.957115 232.929077,102.941078 231.505768,102.911438 
	C229.339325,101.903503 227.558228,100.909157 225.287476,99.641449 
	C229.106659,98.717255 232.625824,97.865654 236.711212,97.231438 
	C237.811249,97.995018 238.345032,98.541214 238.918091,99.355164 
	C238.989090,99.800522 239.020859,99.978119 239.034058,100.470474 
	C238.993988,101.206802 238.972473,101.628380 238.950928,102.049942 
z"/>
<path fill="#6E0305" opacity="1.000000" stroke="none" 
	d="
M261.975555,83.947014 
	C261.751282,83.989632 261.527039,84.032249 260.699829,84.119156 
	C259.740631,84.051949 259.384338,83.940437 258.934692,83.479622 
	C255.955917,80.685600 253.043884,79.294197 249.660187,83.019836 
	C245.578217,85.846680 241.841263,88.560425 238.104309,91.274170 
	C237.916992,90.027672 237.729675,88.781174 237.273300,87.270813 
	C237.262573,86.510300 237.520905,86.013649 237.890625,85.259842 
	C238.986069,83.909973 239.855972,82.680077 240.974701,81.749229 
	C244.968430,78.426186 248.485962,74.594238 254.887100,76.782425 
	C258.317200,77.954987 262.539490,76.560539 266.289764,77.108391 
	C271.106873,77.812096 275.808960,79.303322 280.604309,81.046539 
	C278.087158,82.437775 275.526245,83.237740 272.965332,84.037704 
	C272.965332,84.037712 272.981110,84.021996 272.872498,83.800484 
	C272.563446,83.301704 272.298798,83.115814 271.969940,83.021309 
	C271.531891,83.015312 271.093811,83.009323 270.147003,82.678497 
	C266.497192,80.062653 263.886444,80.322029 261.975555,83.947014 
z"/>
<path fill="#800204" opacity="1.000000" stroke="none" 
	d="
M273.017944,84.399681 
	C275.526245,83.237740 278.087158,82.437775 280.823120,81.325562 
	C281.746033,81.012100 282.493896,81.010895 283.685364,81.356110 
	C285.714355,83.540459 288.904510,86.685959 288.637085,87.014153 
	C285.946960,90.315613 288.348877,93.073975 289.010773,95.989487 
	C289.010773,95.989487 288.980621,96.019897 288.964966,96.036308 
	C284.817566,96.534035 282.722961,94.833122 282.987518,90.539497 
	C283.248444,86.304558 281.015747,85.658363 277.356934,86.258530 
	C276.045258,86.473694 274.505951,85.300949 273.017944,84.399681 
z"/>
<path fill="#6E0305" opacity="1.000000" stroke="none" 
	d="
M289.397034,95.992722 
	C288.348877,93.073975 285.946960,90.315613 288.637085,87.014153 
	C288.904510,86.685959 285.714355,83.540459 284.059235,81.357300 
	C290.905640,81.146988 292.224823,82.801369 290.705231,89.052200 
	C290.491425,89.931763 291.058716,91.173172 291.606384,92.028038 
	C292.573456,93.537628 293.803772,94.878593 294.970703,96.631821 
	C293.272797,96.647652 291.528046,96.321800 289.397034,95.992722 
z"/>
<path fill="#F86869" opacity="1.000000" stroke="none" 
	d="
M259.028076,83.828934 
	C259.384338,83.940437 259.740631,84.051949 260.370422,84.212585 
	C262.114929,84.873962 263.585876,85.486229 265.133545,86.349503 
	C263.746796,86.722366 262.217529,87.179688 260.831268,86.907806 
	C254.922943,85.749039 251.008377,88.868118 247.123306,92.608772 
	C244.618210,95.020752 241.643219,96.944725 238.878830,99.087410 
	C238.345032,98.541214 237.811249,97.995018 237.107361,97.213066 
	C237.287491,95.314110 237.637711,93.650917 238.046112,91.630943 
	C241.841263,88.560425 245.578217,85.846680 250.071594,83.082466 
	C253.561386,83.297638 256.294739,83.563286 259.028076,83.828934 
z"/>
<path fill="#F2160E" opacity="1.000000" stroke="none" 
	d="
M238.918091,99.355164 
	C241.643219,96.944725 244.618210,95.020752 247.123306,92.608772 
	C251.008377,88.868118 254.922943,85.749039 260.831268,86.907806 
	C262.217529,87.179688 263.746796,86.722366 265.483612,86.327347 
	C274.543518,86.722488 279.246613,93.022804 284.034546,99.620483 
	C281.428314,102.359268 278.944885,104.980125 276.084747,107.090485 
	C270.396576,111.287598 263.557098,109.955933 257.129852,110.594078 
	C255.787949,110.727325 254.481384,111.216415 252.922531,111.846855 
	C250.793228,111.339462 248.899933,110.526741 247.101135,109.016953 
	C246.989578,106.920471 247.285782,104.857285 246.481369,104.248596 
	C244.250259,102.560333 241.560898,101.477676 239.052612,100.155708 
	C239.020859,99.978119 238.989090,99.800522 238.918091,99.355164 
M257.167755,101.456833 
	C260.054413,102.104149 262.925629,103.070343 265.836761,103.211151 
	C266.751068,103.255371 268.694122,100.981010 268.580902,99.940445 
	C268.158203,96.056480 265.616028,94.463242 261.643311,94.858665 
	C257.902069,95.231056 255.441971,96.336586 257.167755,101.456833 
z"/>
<path fill="#830405" opacity="1.000000" stroke="none" 
	d="
M262.347351,83.924408 
	C263.886444,80.322029 266.497192,80.062653 269.818512,82.670792 
	C267.572235,83.292542 265.145660,83.597176 262.347351,83.924408 
z"/>
<path fill="#800204" opacity="1.000000" stroke="none" 
	d="
M272.089905,83.232300 
	C272.298798,83.115814 272.563446,83.301704 272.869415,83.801453 
	C272.664459,83.903419 272.409454,83.709877 272.089905,83.232300 
z"/>
<path fill="#FA5857" opacity="1.000000" stroke="none" 
	d="
M239.034058,100.470474 
	C241.560898,101.477676 244.250259,102.560333 246.481369,104.248596 
	C247.285782,104.857285 246.989578,106.920471 247.049103,108.645866 
	C246.184082,108.710411 245.465576,108.448990 244.473541,108.070175 
	C242.600052,106.142738 241.000122,104.332680 239.175568,102.286285 
	C238.972473,101.628380 238.993988,101.206802 239.034058,100.470474 
z"/>
<path fill="#830405" opacity="1.000000" stroke="none" 
	d="
M258.934692,83.479630 
	C256.294739,83.563286 253.561386,83.297638 250.416626,82.969360 
	C253.043884,79.294197 255.955917,80.685600 258.934692,83.479630 
z"/>
<path fill="#FDBA1D" opacity="1.000000" stroke="none" 
	d="
M257.044250,101.105293 
	C255.441971,96.336586 257.902069,95.231056 261.643311,94.858665 
	C265.616028,94.463242 268.158203,96.056480 268.580902,99.940445 
	C268.694122,100.981010 266.751068,103.255371 265.836761,103.211151 
	C262.925629,103.070343 260.054413,102.104149 257.044250,101.105293 
z"/>
</svg>